<svg width="40" height="40" viewBox="0 0 40 40" fill="none" xmlns="http://www.w3.org/2000/svg">
<path d="M20 25.0667C23.866 25.0667 27 21.8431 27 17.8667C27 13.8902 23.866 10.6667 20 10.6667C16.134 10.6667 13 13.8902 13 17.8667C13 21.8431 16.134 25.0667 20 25.0667ZM20 25.0667C10.6667 25.0667 10.5847 29.8861 10.5847 35.1881M20 25.0667C29.3333 25.2754 29.4153 29.8861 29.4153 35.1881M29.4153 35.1881C27.4551 36 24.97 36 20 36C15.03 36 12.5449 36 10.5847 35.1881M29.4153 35.1881C32.0289 34.1054 34.1054 32.0289 35.1881 29.4153C36 27.4551 36 24.97 36 20C36 15.03 36 12.5449 35.1881 10.5847C34.1054 7.97108 32.0289 5.89455 29.4153 4.81195C27.4551 4 24.97 4 20 4C15.03 4 12.5449 4 10.5847 4.81195C7.97108 5.89455 5.89455 7.97108 4.81195 10.5847C4 12.5449 4 15.03 4 20C4 24.97 4 27.4551 4.81195 29.4153C5.89455 32.0289 7.97108 34.1054 10.5847 35.1881" stroke="white" stroke-width="2" stroke-linecap="round"/>
</svg>
