<svg width="184" height="50" viewBox="0 0 184 50" fill="none" xmlns="http://www.w3.org/2000/svg">
<path d="M22 35.6531H1V1L182.5 1.00024V35.6533L39.5 35.6531H38.9626L38.666 36.1013L30.9764 47.7234L22.819 36.0793L22.5204 35.6531H22Z" fill="white" stroke="#A772FF" stroke-width="2"/>
<path d="M23.7066 23.5V13.504H31.2106V23.5H29.9646V14.61H24.9666V23.5H23.7066ZM36.5929 13.504C37.8995 13.504 38.8515 13.7607 39.4489 14.274C40.0462 14.7873 40.3449 15.5107 40.3449 16.444C40.3449 16.8547 40.2749 17.2513 40.1349 17.634C40.0042 18.0073 39.7849 18.3433 39.4769 18.642C39.1689 18.9407 38.7582 19.1787 38.2449 19.356C37.7315 19.524 37.1015 19.608 36.3549 19.608H35.2069V23.5H33.9469V13.504H36.5929ZM36.4809 14.582H35.2069V18.53H36.2149C36.8495 18.53 37.3769 18.4647 37.7969 18.334C38.2169 18.194 38.5295 17.9747 38.7349 17.676C38.9402 17.3773 39.0429 16.9853 39.0429 16.5C39.0429 15.856 38.8375 15.3753 38.4269 15.058C38.0162 14.7407 37.3675 14.582 36.4809 14.582ZM51.1454 18.488C51.1454 19.2627 51.0474 19.9673 50.8514 20.602C50.6554 21.2273 50.3614 21.7687 49.9694 22.226C49.5868 22.6833 49.1061 23.0333 48.5274 23.276C47.9581 23.5187 47.2954 23.64 46.5394 23.64C45.7554 23.64 45.0741 23.5187 44.4954 23.276C43.9168 23.024 43.4361 22.674 43.0534 22.226C42.6708 21.7687 42.3861 21.2227 42.1994 20.588C42.0128 19.9533 41.9194 19.2487 41.9194 18.474C41.9194 17.4473 42.0874 16.5513 42.4234 15.786C42.7594 15.0207 43.2681 14.4233 43.9494 13.994C44.6401 13.5647 45.5081 13.35 46.5534 13.35C47.5521 13.35 48.3921 13.5647 49.0734 13.994C49.7548 14.414 50.2681 15.0113 50.6134 15.786C50.9681 16.5513 51.1454 17.452 51.1454 18.488ZM43.2494 18.488C43.2494 19.328 43.3661 20.0513 43.5994 20.658C43.8328 21.2647 44.1921 21.7313 44.6774 22.058C45.1721 22.3847 45.7928 22.548 46.5394 22.548C47.2954 22.548 47.9114 22.3847 48.3874 22.058C48.8728 21.7313 49.2321 21.2647 49.4654 20.658C49.6988 20.0513 49.8154 19.328 49.8154 18.488C49.8154 17.228 49.5541 16.2433 49.0314 15.534C48.5088 14.8153 47.6828 14.456 46.5534 14.456C45.7974 14.456 45.1721 14.6193 44.6774 14.946C44.1921 15.2633 43.8328 15.7253 43.5994 16.332C43.3661 16.9293 43.2494 17.648 43.2494 18.488ZM59.8215 13.504V22.38H61.0955V26.132H59.8915V23.5H53.0175V26.132H51.8135V22.38H52.5835C52.9195 21.8013 53.2368 21.1527 53.5355 20.434C53.8435 19.7153 54.1142 18.964 54.3475 18.18C54.5808 17.3867 54.7722 16.5933 54.9215 15.8C55.0708 15.0067 55.1642 14.2413 55.2015 13.504H59.8215ZM56.3075 14.638C56.2702 15.1793 56.1768 15.7907 56.0275 16.472C55.8875 17.1533 55.7055 17.8533 55.4815 18.572C55.2668 19.2813 55.0242 19.9673 54.7535 20.63C54.4922 21.2927 54.2122 21.876 53.9135 22.38H58.5755V14.638H56.3075ZM69.0392 23.5L67.8352 20.406H63.8732L62.6832 23.5H61.4092L65.3152 13.462H66.4492L70.3412 23.5H69.0392ZM66.3372 16.262C66.3092 16.1873 66.2625 16.052 66.1972 15.856C66.1318 15.66 66.0665 15.4593 66.0012 15.254C65.9452 15.0393 65.8985 14.876 65.8612 14.764C65.8145 14.9507 65.7632 15.142 65.7072 15.338C65.6605 15.5247 65.6092 15.6973 65.5532 15.856C65.5065 16.0147 65.4645 16.15 65.4272 16.262L64.2932 19.286H67.4572L66.3372 16.262ZM74.3826 18.362L70.5046 13.504H71.9046L75.7266 18.348V13.504H76.9306V18.348L80.7526 13.504H82.1526L78.2746 18.348L82.2786 23.5H80.8366L76.9306 18.432V23.5H75.7266V18.432L71.8066 23.5H70.3646L74.3826 18.362ZM89.9298 23.5L88.7258 20.406H84.7638L83.5738 23.5H82.2998L86.2058 13.462H87.3398L91.2318 23.5H89.9298ZM87.2278 16.262C87.1998 16.1873 87.1531 16.052 87.0878 15.856C87.0225 15.66 86.9571 15.4593 86.8918 15.254C86.8358 15.0393 86.7891 14.876 86.7518 14.764C86.7051 14.9507 86.6538 15.142 86.5978 15.338C86.5511 15.5247 86.4998 15.6973 86.4438 15.856C86.3971 16.0147 86.3551 16.15 86.3178 16.262L85.1838 19.286H88.3478L87.2278 16.262ZM103.743 23.5H102.483V18.838H97.3592V23.5H96.0992V13.504H97.3592V17.732H102.483V13.504H103.743V23.5ZM112.748 23.5L111.544 20.406H107.582L106.392 23.5H105.118L109.024 13.462H110.158L114.05 23.5H112.748ZM110.046 16.262C110.018 16.1873 109.971 16.052 109.906 15.856C109.841 15.66 109.775 15.4593 109.71 15.254C109.654 15.0393 109.607 14.876 109.57 14.764C109.523 14.9507 109.472 15.142 109.416 15.338C109.369 15.5247 109.318 15.6973 109.262 15.856C109.215 16.0147 109.173 16.15 109.136 16.262L108.002 19.286H111.166L110.046 16.262ZM123.202 14.47C122.67 14.47 122.189 14.5633 121.76 14.75C121.33 14.9273 120.966 15.1933 120.668 15.548C120.369 15.8933 120.14 16.318 119.982 16.822C119.823 17.3167 119.744 17.8767 119.744 18.502C119.744 19.3233 119.87 20.0373 120.122 20.644C120.383 21.2507 120.766 21.7173 121.27 22.044C121.783 22.3707 122.422 22.534 123.188 22.534C123.626 22.534 124.042 22.4967 124.434 22.422C124.826 22.3473 125.208 22.254 125.582 22.142V23.234C125.208 23.374 124.821 23.4767 124.42 23.542C124.028 23.6073 123.556 23.64 123.006 23.64C121.988 23.64 121.139 23.43 120.458 23.01C119.776 22.59 119.263 21.9927 118.918 21.218C118.582 20.4433 118.414 19.5333 118.414 18.488C118.414 17.732 118.516 17.0413 118.722 16.416C118.936 15.7907 119.244 15.2493 119.646 14.792C120.056 14.3347 120.56 13.9847 121.158 13.742C121.755 13.49 122.441 13.364 123.216 13.364C123.729 13.364 124.224 13.4153 124.7 13.518C125.176 13.6207 125.6 13.7653 125.974 13.952L125.47 15.016C125.162 14.876 124.816 14.75 124.434 14.638C124.06 14.526 123.65 14.47 123.202 14.47ZM134.035 23.5L132.831 20.406H128.869L127.679 23.5H126.405L130.311 13.462H131.445L135.337 23.5H134.035ZM131.333 16.262C131.305 16.1873 131.259 16.052 131.193 15.856C131.128 15.66 131.063 15.4593 130.997 15.254C130.941 15.0393 130.895 14.876 130.857 14.764C130.811 14.9507 130.759 15.142 130.703 15.338C130.657 15.5247 130.605 15.6973 130.549 15.856C130.503 16.0147 130.461 16.15 130.423 16.262L129.289 19.286H132.453L131.333 16.262ZM143.523 10.396C143.485 10.8627 143.369 11.2547 143.173 11.572C142.986 11.8893 142.706 12.1273 142.333 12.286C141.959 12.4447 141.474 12.524 140.877 12.524C140.27 12.524 139.78 12.4447 139.407 12.286C139.043 12.1273 138.777 11.894 138.609 11.586C138.441 11.2687 138.338 10.872 138.301 10.396H139.449C139.495 10.9 139.626 11.2407 139.841 11.418C140.065 11.586 140.419 11.67 140.905 11.67C141.334 11.67 141.67 11.5813 141.913 11.404C142.165 11.2173 142.314 10.8813 142.361 10.396H143.523ZM136.719 13.504H137.895V18.992C137.895 19.2253 137.89 19.482 137.881 19.762C137.881 20.0327 137.876 20.3033 137.867 20.574C137.857 20.8447 137.843 21.0873 137.825 21.302C137.815 21.5073 137.806 21.666 137.797 21.778H137.853L143.355 13.504H144.755V23.5H143.579V18.068C143.579 17.816 143.583 17.5453 143.593 17.256C143.602 16.9573 143.611 16.6727 143.621 16.402C143.639 16.122 143.653 15.8747 143.663 15.66C143.672 15.4453 143.681 15.2867 143.691 15.184H143.635L138.119 23.5H136.719V13.504ZM150.615 23.5H149.355V14.61H146.233V13.504H153.723V14.61H150.615V23.5ZM160.816 23.5H155.23V13.504H160.816V14.61H156.49V17.732H160.564V18.824H156.49V22.394H160.816V23.5Z" fill="black"/>
</svg>
