<svg width="184" height="50" viewBox="0 0 184 50" fill="none" xmlns="http://www.w3.org/2000/svg">
<path d="M22 35.6531H1V1L182.5 1.00024V35.6533L39.5 35.6531H38.9626L38.666 36.1013L30.9764 47.7234L22.819 36.0793L22.5204 35.6531H22Z" fill="white" stroke="#A772FF" stroke-width="2"/>
<path d="M21.4723 23.5V13.504H28.9763V23.5H27.7303V14.61H22.7323V23.5H21.4723ZM40.4345 18.488C40.4345 19.2627 40.3365 19.9673 40.1405 20.602C39.9445 21.2273 39.6505 21.7687 39.2585 22.226C38.8758 22.6833 38.3952 23.0333 37.8165 23.276C37.2472 23.5187 36.5845 23.64 35.8285 23.64C35.0445 23.64 34.3632 23.5187 33.7845 23.276C33.2058 23.024 32.7252 22.674 32.3425 22.226C31.9598 21.7687 31.6752 21.2227 31.4885 20.588C31.3018 19.9533 31.2085 19.2487 31.2085 18.474C31.2085 17.4473 31.3765 16.5513 31.7125 15.786C32.0485 15.0207 32.5572 14.4233 33.2385 13.994C33.9292 13.5647 34.7972 13.35 35.8425 13.35C36.8412 13.35 37.6812 13.5647 38.3625 13.994C39.0438 14.414 39.5572 15.0113 39.9025 15.786C40.2572 16.5513 40.4345 17.452 40.4345 18.488ZM32.5385 18.488C32.5385 19.328 32.6552 20.0513 32.8885 20.658C33.1218 21.2647 33.4812 21.7313 33.9665 22.058C34.4612 22.3847 35.0818 22.548 35.8285 22.548C36.5845 22.548 37.2005 22.3847 37.6765 22.058C38.1618 21.7313 38.5212 21.2647 38.7545 20.658C38.9878 20.0513 39.1045 19.328 39.1045 18.488C39.1045 17.228 38.8432 16.2433 38.3205 15.534C37.7978 14.8153 36.9718 14.456 35.8425 14.456C35.0865 14.456 34.4612 14.6193 33.9665 14.946C33.4812 15.2633 33.1218 15.7253 32.8885 16.332C32.6552 16.9293 32.5385 17.648 32.5385 18.488ZM49.5726 23.5H48.3126V14.61H45.1486C45.0832 15.1233 45.0132 15.6647 44.9386 16.234C44.8639 16.794 44.7846 17.3493 44.7006 17.9C44.6259 18.4507 44.5512 18.9687 44.4766 19.454C44.4019 19.9393 44.3272 20.364 44.2526 20.728C44.1312 21.3533 43.9819 21.8853 43.8046 22.324C43.6272 22.7627 43.3892 23.094 43.0906 23.318C42.8012 23.542 42.4186 23.654 41.9426 23.654C41.7839 23.654 41.6206 23.6353 41.4526 23.598C41.2939 23.57 41.1539 23.5327 41.0326 23.486V22.436C41.1352 22.4827 41.2519 22.5247 41.3826 22.562C41.5132 22.59 41.6532 22.604 41.8026 22.604C42.0826 22.604 42.3019 22.492 42.4606 22.268C42.6286 22.0347 42.7592 21.75 42.8526 21.414C42.9459 21.0687 43.0252 20.728 43.0906 20.392C43.1466 20.1213 43.2119 19.762 43.2866 19.314C43.3612 18.8567 43.4406 18.3247 43.5246 17.718C43.6179 17.1113 43.7112 16.4533 43.8046 15.744C43.9072 15.0253 44.0052 14.2787 44.0986 13.504H49.5726V23.5ZM56.4747 20.658C56.176 21.3207 55.8727 21.876 55.5647 22.324C55.266 22.7627 54.9113 23.094 54.5007 23.318C54.09 23.5327 53.5673 23.64 52.9327 23.64C52.6713 23.64 52.424 23.6213 52.1907 23.584C51.9667 23.5467 51.7613 23.4953 51.5747 23.43V22.184C51.7613 22.268 51.962 22.338 52.1767 22.394C52.3913 22.4407 52.6153 22.464 52.8487 22.464C53.194 22.464 53.488 22.4173 53.7307 22.324C53.9827 22.2213 54.202 22.058 54.3887 21.834C54.5847 21.61 54.7667 21.3113 54.9347 20.938L51.0847 13.504H52.4707L55.2567 19.006C55.294 19.0713 55.3313 19.1507 55.3687 19.244C55.406 19.328 55.4433 19.4167 55.4807 19.51C55.5273 19.6033 55.5647 19.692 55.5927 19.776H55.6487C55.6767 19.7107 55.7047 19.636 55.7327 19.552C55.77 19.4587 55.8027 19.37 55.8307 19.286C55.868 19.1927 55.9007 19.1133 55.9287 19.048L58.3367 13.504H59.6667L56.4747 20.658ZM68.081 23.5H66.821V19.398C66.2797 19.5847 65.771 19.7387 65.295 19.86C64.8283 19.972 64.3057 20.028 63.727 20.028C62.7937 20.028 62.0703 19.8133 61.557 19.384C61.0437 18.9453 60.787 18.3153 60.787 17.494V13.504H62.047V17.312C62.047 17.8533 62.187 18.2593 62.467 18.53C62.7563 18.7913 63.2183 18.922 63.853 18.922C64.4037 18.922 64.8983 18.8707 65.337 18.768C65.7757 18.6653 66.2703 18.5253 66.821 18.348V13.504H68.081V23.5ZM70.8144 13.504H71.9904V18.992C71.9904 19.2253 71.9857 19.482 71.9764 19.762C71.9764 20.0327 71.9717 20.3033 71.9624 20.574C71.953 20.8447 71.939 21.0873 71.9204 21.302C71.911 21.5073 71.9017 21.666 71.8924 21.778H71.9484L77.4504 13.504H78.8504V23.5H77.6744V18.068C77.6744 17.816 77.679 17.5453 77.6884 17.256C77.6977 16.9573 77.707 16.6727 77.7164 16.402C77.7351 16.122 77.7491 15.8747 77.7584 15.66C77.7677 15.4453 77.777 15.2867 77.7864 15.184H77.7304L72.2144 23.5H70.8144V13.504ZM84.7105 23.5H83.4505V14.61H80.3285V13.504H87.8185V14.61H84.7105V23.5ZM89.3258 23.5V13.504H90.5858V17.732H92.4618C93.3951 17.732 94.1371 17.858 94.6878 18.11C95.2384 18.362 95.6351 18.7027 95.8778 19.132C96.1204 19.5613 96.2418 20.042 96.2418 20.574C96.2418 21.162 96.1064 21.6753 95.8358 22.114C95.5744 22.5527 95.1778 22.8933 94.6458 23.136C94.1138 23.3787 93.4371 23.5 92.6158 23.5H89.3258ZM92.4898 22.422C93.3018 22.422 93.9131 22.2727 94.3238 21.974C94.7344 21.666 94.9398 21.1993 94.9398 20.574C94.9398 20.1447 94.8371 19.804 94.6318 19.552C94.4358 19.2907 94.1418 19.104 93.7498 18.992C93.3671 18.88 92.8864 18.824 92.3078 18.824H90.5858V22.422H92.4898ZM101.808 23.5V13.504H109.312V23.5H108.066V14.61H103.068V23.5H101.808ZM114.694 13.504C116.001 13.504 116.953 13.7607 117.55 14.274C118.148 14.7873 118.446 15.5107 118.446 16.444C118.446 16.8547 118.376 17.2513 118.236 17.634C118.106 18.0073 117.886 18.3433 117.578 18.642C117.27 18.9407 116.86 19.1787 116.346 19.356C115.833 19.524 115.203 19.608 114.456 19.608H113.308V23.5H112.048V13.504H114.694ZM114.582 14.582H113.308V18.53H114.316C114.951 18.53 115.478 18.4647 115.898 18.334C116.318 18.194 116.631 17.9747 116.836 17.676C117.042 17.3773 117.144 16.9853 117.144 16.5C117.144 15.856 116.939 15.3753 116.528 15.058C116.118 14.7407 115.469 14.582 114.582 14.582ZM126.111 23.5H120.525V13.504H126.111V14.61H121.785V17.732H125.859V18.824H121.785V22.394H126.111V23.5ZM135.038 13.504V22.38H136.312V26.132H135.108V23.5H128.234V26.132H127.03V22.38H127.8C128.136 21.8013 128.454 21.1527 128.752 20.434C129.06 19.7153 129.331 18.964 129.564 18.18C129.798 17.3867 129.989 16.5933 130.138 15.8C130.288 15.0067 130.381 14.2413 130.418 13.504H135.038ZM131.524 14.638C131.487 15.1793 131.394 15.7907 131.244 16.472C131.104 17.1533 130.922 17.8533 130.698 18.572C130.484 19.2813 130.241 19.9673 129.97 20.63C129.709 21.2927 129.429 21.876 129.13 22.38H133.792V14.638H131.524ZM142.394 23.5L139.104 14.736H139.048C139.067 14.9227 139.081 15.1607 139.09 15.45C139.109 15.7393 139.123 16.0567 139.132 16.402C139.141 16.738 139.146 17.0833 139.146 17.438V23.5H137.984V13.504H139.846L142.926 21.694H142.982L146.118 13.504H147.966V23.5H146.72V17.354C146.72 17.0273 146.725 16.7053 146.734 16.388C146.743 16.0613 146.757 15.758 146.776 15.478C146.795 15.1887 146.809 14.946 146.818 14.75H146.762L143.43 23.5H142.394ZM156.271 23.5H150.685V13.504H156.271V14.61H151.945V17.732H156.019V18.824H151.945V22.394H156.271V23.5ZM161.628 23.5H160.368V14.61H157.246V13.504H164.736V14.61H161.628V23.5Z" fill="black"/>
</svg>
