<svg width="40" height="40" viewBox="0 0 40 40" fill="none" xmlns="http://www.w3.org/2000/svg">
<path d="M7.38533 34.0541L7.88976 33.1907L7.38533 34.0541ZM4.87047 21.7431L5.8556 21.915L4.87047 21.7431ZM4.31774 30.3548L5.25874 30.0164L4.31774 30.3548ZM35.1295 21.7431L36.1147 21.5713L36.1147 21.5713L35.1295 21.7431ZM35.6823 30.3548L34.7413 30.0164L35.6823 30.3548ZM32.6147 34.0541L32.1102 33.1907L32.6147 34.0541ZM29.1933 5.61015L29.604 4.69837L29.604 4.69837L29.1933 5.61015ZM33.8368 14.3314L32.8517 14.5032L32.8517 14.5032L33.8368 14.3314ZM32.1395 8.11101L32.9715 7.55623L32.9715 7.55623L32.1395 8.11101ZM10.8067 5.61015L10.396 4.69837L10.396 4.69837L10.8067 5.61015ZM6.16322 14.3314L5.17809 14.1595L5.17809 14.1595L6.16322 14.3314ZM7.86052 8.11101L7.02852 7.55623L7.02852 7.55623L7.86052 8.11101ZM26.9814 12.4303C27.247 11.9461 27.0697 11.3382 26.5855 11.0726C26.1012 10.807 25.4934 10.9843 25.2278 11.4685L26.9814 12.4303ZM14.7722 11.4685C14.5066 10.9843 13.8988 10.807 13.4145 11.0726C12.9303 11.3382 12.753 11.9461 13.0186 12.4303L14.7722 11.4685ZM17.1561 6H22.8439V4H17.1561V6ZM32.8517 14.5032L34.1444 21.915L36.1147 21.5713L34.8219 14.1595L32.8517 14.5032ZM24.1367 34H15.8633V36H24.1367V34ZM5.8556 21.915L7.14834 14.5032L5.17809 14.1595L3.88535 21.5713L5.8556 21.915ZM15.8633 34C13.5589 34 11.8958 33.9991 10.6043 33.8856C9.32226 33.773 8.51517 33.5561 7.88976 33.1907L6.88089 34.9176C7.87453 35.4981 9.02012 35.7541 10.4292 35.8779C11.8287 36.0009 13.5951 36 15.8633 36V34ZM3.88535 21.5713C3.49105 23.8319 3.18353 25.59 3.06017 27.004C2.93604 28.4269 2.98629 29.6075 3.37674 30.6932L5.25874 30.0164C5.00993 29.3245 4.93923 28.4774 5.05261 27.1778C5.16676 25.8694 5.45524 24.2104 5.8556 21.915L3.88535 21.5713ZM7.88976 33.1907C6.67345 32.4801 5.74087 31.357 5.25874 30.0164L3.37674 30.6932C4.0164 32.4719 5.25606 33.9684 6.88089 34.9176L7.88976 33.1907ZM34.1444 21.915C34.5448 24.2104 34.8332 25.8694 34.9474 27.1778C35.0608 28.4774 34.9901 29.3245 34.7413 30.0164L36.6233 30.6932C37.0137 29.6075 37.064 28.4269 36.9398 27.004C36.8165 25.59 36.5089 23.8319 36.1147 21.5713L34.1444 21.915ZM24.1367 36C26.4049 36 28.1713 36.0009 29.5708 35.8779C30.9799 35.7541 32.1255 35.4981 33.1191 34.9176L32.1102 33.1907C31.4848 33.5561 30.6777 33.773 29.3957 33.8856C28.1042 33.9991 26.4411 34 24.1367 34V36ZM34.7413 30.0164C34.2591 31.357 33.3266 32.4801 32.1102 33.1907L33.1191 34.9176C34.7439 33.9684 35.9836 32.4719 36.6233 30.6932L34.7413 30.0164ZM22.8439 6C24.524 6 25.7283 6.00067 26.6834 6.07338C27.6257 6.14512 28.2525 6.28315 28.7826 6.52193L29.604 4.69837C28.7795 4.327 27.8966 4.15996 26.8352 4.07915C25.7867 3.99933 24.4937 4 22.8439 4V6ZM34.8219 14.1595C34.5351 12.5152 34.3113 11.2282 34.0518 10.1989C33.7892 9.1577 33.4743 8.31033 32.9715 7.55623L31.3075 8.66579C31.6339 9.15537 31.8783 9.75928 32.1125 10.6879C32.3496 11.6284 32.5598 12.8297 32.8517 14.5032L34.8219 14.1595ZM28.7826 6.52193C29.8046 6.98223 30.6799 7.72454 31.3075 8.66579L32.9715 7.55623C32.1369 6.30464 30.9705 5.31386 29.604 4.69837L28.7826 6.52193ZM17.1561 4C15.5063 4 14.2133 3.99933 13.1648 4.07915C12.1034 4.15996 11.2205 4.327 10.396 4.69837L11.2174 6.52193C11.7475 6.28315 12.3743 6.14512 13.3166 6.07338C14.2717 6.00067 15.476 6 17.1561 6V4ZM7.14834 14.5032C7.44023 12.8297 7.65042 11.6284 7.88755 10.6879C8.12168 9.75928 8.36607 9.15537 8.69252 8.66579L7.02852 7.55623C6.52569 8.31033 6.21077 9.1577 5.94824 10.1989C5.68871 11.2282 5.46489 12.5152 5.17809 14.1595L7.14834 14.5032ZM10.396 4.69837C9.0295 5.31386 7.86309 6.30464 7.02852 7.55623L8.69252 8.66579C9.32014 7.72454 10.1954 6.98223 11.2174 6.52193L10.396 4.69837ZM25.2278 11.4685C24.2041 13.3352 22.243 14.5882 20 14.5882V16.5882C23.0105 16.5882 25.6248 14.9038 26.9814 12.4303L25.2278 11.4685ZM20 14.5882C17.757 14.5882 15.7959 13.3352 14.7722 11.4685L13.0186 12.4303C14.3752 14.9038 16.9895 16.5882 20 16.5882V14.5882Z" fill="white"/>
</svg>
