<svg width="40" height="40" viewBox="0 0 40 40" fill="none" xmlns="http://www.w3.org/2000/svg">
<path d="M9.66699 15.6666H16.3337" stroke="white" stroke-width="2" stroke-linecap="round" stroke-linejoin="round"/>
<path d="M34.3892 17.3334H30.0517C27.0778 17.3334 24.667 19.5719 24.667 22.3334C24.667 25.0949 27.0778 27.3334 30.0517 27.3334H34.3892C34.5282 27.3334 34.5975 27.3334 34.6562 27.3299C35.555 27.275 36.2708 26.6104 36.3298 25.7757C36.3337 25.7212 36.3337 25.6567 36.3337 25.5279V19.1389C36.3337 19.01 36.3337 18.9455 36.3298 18.891C36.2708 18.0564 35.555 17.3917 34.6562 17.3369C34.5975 17.3334 34.5282 17.3334 34.3892 17.3334Z" stroke="white" stroke-width="2"/>
<path d="M34.6083 17.3333C34.4788 14.2128 34.061 12.2996 32.714 10.9526C30.7615 9 27.6187 9 21.3333 9H16.3333C10.0479 9 6.90525 9 4.95262 10.9526C3 12.9052 3 16.048 3 22.3333C3 28.6187 3 31.7615 4.95262 33.714C6.90525 35.6667 10.0479 35.6667 16.3333 35.6667H21.3333C27.6187 35.6667 30.7615 35.6667 32.714 33.714C34.061 32.3672 34.4788 30.4538 34.6083 27.3333" stroke="white" stroke-width="2"/>
<path d="M9.66699 9L15.8928 4.87189C17.646 3.70937 20.0213 3.70937 21.7745 4.87189L28.0003 9" stroke="white" stroke-width="2" stroke-linecap="round"/>
<path d="M29.6523 22.3334H29.6673" stroke="white" stroke-width="2" stroke-linecap="round" stroke-linejoin="round"/>
</svg>
