<svg width="292" height="80" viewBox="0 0 292 80" fill="none" xmlns="http://www.w3.org/2000/svg">
<path d="M60.3644 26.9183L51.1506 24.2826L53.6212 14.5326L62.8348 17.1682L60.3644 26.9183ZM58.6228 19.7396L56.0511 18.9896L55.3626 21.711L57.9344 22.4612L58.6228 19.7396Z" fill="white"/>
<path d="M174.285 26.9183L165.071 24.2826L167.542 14.5326L176.755 17.1682L174.285 26.9183ZM172.543 19.7396L169.972 18.9896L169.283 21.711L171.855 22.4612L172.543 19.7396Z" fill="white"/>
<path d="M50.6162 80V40.3657H60.543L75.0968 64.9106L70.9747 64.9673L84.7152 40.3657H94.6141V80H84.6592L84.8554 53.5582L86.6501 54.2377L75.9942 72.8941H69.2361L58.1034 54.2377L59.87 53.5582L60.0663 80H50.6162Z" fill="white"/>
<path d="M99.1209 80L113.619 40.3657H125.733L140.259 80H128.621L126.153 72.4412H112.89L110.45 80H99.1209ZM115.161 63.7782H123.826L119.507 51.2651L115.161 63.7782Z" fill="white"/>
<path d="M144.765 80V40.3657H161.057C164.049 40.3657 166.656 40.8469 168.881 41.8095C171.124 42.772 172.854 44.1687 174.069 45.9994C175.303 47.8113 175.92 50.01 175.92 52.5957C175.92 54.5208 175.564 56.2194 174.854 57.6915C174.162 59.1448 173.218 60.3716 172.022 61.3719C170.825 62.3722 169.489 63.1271 168.012 63.6367L178.135 80H165.937L157.889 65.8732H155.084V80H144.765ZM155.084 57.6349H159.908C161.646 57.6349 163.011 57.3046 164.002 56.6441C165.011 55.9646 165.516 54.8416 165.516 53.2751C165.516 51.6898 165.03 50.5574 164.058 49.8779C163.104 49.1985 161.768 48.8587 160.048 48.8587H155.084V57.6349Z" fill="white"/>
<path d="M183.706 80V40.3657H194.026V56.1628L206.364 40.3657H219.263L204.682 58.6824L221.058 80H207.822L197.895 66.5243L194.026 70.8841V80H183.706Z" fill="white"/>
<path d="M225.495 80V40.3657H253.846V49.3683H235.815V55.6249H250.761V63.8915H235.815V70.8841H254.07V80H225.495Z" fill="white"/>
<path d="M268.264 80V49.8496H257.972V40.3657H288.931V49.8496H278.639V80H268.264Z" fill="white"/>
<path d="M0 40.4836V0.849306H16.2924C19.2835 0.849306 21.8915 1.33058 24.1161 2.29313C26.3595 3.25568 28.0887 4.65231 29.3039 6.48304C30.5377 8.2949 31.1547 10.4937 31.1547 13.0793C31.1547 15.0044 30.7995 16.703 30.0891 18.1752C29.3974 19.6284 28.4533 20.8552 27.2568 21.8555C26.0604 22.8558 24.7237 23.6107 23.2468 24.1203L33.37 40.4836H21.1717L13.1237 26.3568H10.3195V40.4836H0ZM10.3195 18.1186H15.1427C16.8813 18.1186 18.246 17.7883 19.2368 17.1277C20.2463 16.4482 20.7511 15.3253 20.7511 13.7588C20.7511 12.1734 20.265 11.041 19.2929 10.3615C18.3395 9.6821 17.0028 9.34238 15.2829 9.34238H10.3195V18.1186Z" fill="white"/>
<path d="M57.0133 41.3329C53.9661 41.3329 51.1619 40.8139 48.6007 39.7759C46.0396 38.719 43.8149 37.2563 41.9267 35.3878C40.0386 33.5193 38.571 31.33 37.5241 28.8198C36.4959 26.3096 35.9818 23.5919 35.9818 20.6665C35.9818 17.7222 36.4959 14.995 37.5241 12.4848C38.571 9.97464 40.0386 7.78531 41.9267 5.91684C43.8149 4.04836 46.0396 2.5951 48.6007 1.55706C51.1619 0.51902 53.9661 0 57.0133 0C60.0606 0 62.8554 0.528458 65.3979 1.58537C67.9591 2.64229 70.1837 4.11442 72.0719 6.00177C73.9787 7.88912 75.4556 10.0879 76.5025 12.5981C77.5494 15.0894 78.0729 17.7788 78.0729 20.6665C78.0729 23.5919 77.5494 26.3096 76.5025 28.8198C75.4556 31.33 73.9787 33.5193 72.0719 35.3878C70.1837 37.2563 67.9591 38.719 65.3979 39.7759C62.8554 40.8139 60.0606 41.3329 57.0133 41.3329ZM57.0133 31.5659C58.5089 31.5659 59.8736 31.3111 61.1075 30.8015C62.36 30.292 63.4443 29.5653 64.3603 28.6216C65.2764 27.6591 65.9868 26.5078 66.4915 25.1678C66.9963 23.8278 67.2487 22.3273 67.2487 20.6665C67.2487 18.4394 66.8093 16.5143 65.9307 14.8912C65.052 13.2492 63.8369 11.9847 62.2852 11.0976C60.7523 10.2106 58.995 9.76703 57.0133 9.76703C55.5364 9.76703 54.1717 10.0218 52.9192 10.5314C51.6666 11.041 50.5824 11.7676 49.6663 12.7113C48.7503 13.655 48.0399 14.8063 47.5351 16.1651C47.0491 17.5052 46.806 19.0056 46.806 20.6665C46.806 22.8935 47.2454 24.8281 48.124 26.4701C49.0027 28.0932 50.2085 29.3483 51.7414 30.2353C53.2744 31.1224 55.0317 31.5659 57.0133 31.5659Z" fill="white"/>
<path d="M84.5641 40.4836V0.849306H100.352C104.427 0.849306 107.671 1.69861 110.082 3.39723C112.513 5.07697 113.728 7.57771 113.728 10.8994C113.728 12.0885 113.494 13.1831 113.027 14.1834C112.578 15.1648 111.952 16.0425 111.148 16.8163C110.344 17.5712 109.437 18.2035 108.428 18.7131C110.522 19.468 112.195 20.7325 113.447 22.5066C114.719 24.2619 115.354 26.3285 115.354 28.7066C115.354 31.1224 114.756 33.2079 113.56 34.9631C112.363 36.7184 110.662 38.0773 108.456 39.0398C106.269 40.0024 103.651 40.4836 100.604 40.4836H84.5641ZM94.8836 32.9248H99.2021C100.997 32.9248 102.343 32.5473 103.24 31.7924C104.137 31.0186 104.586 29.8956 104.586 28.4235C104.586 26.9891 104.165 25.8756 103.324 25.0829C102.483 24.2902 101.249 23.8938 99.6227 23.8938H94.8836V32.9248ZM94.8836 16.8729H99.0058C99.9966 16.8729 100.838 16.703 101.53 16.3633C102.24 16.0236 102.782 15.5329 103.156 14.8912C103.549 14.2495 103.745 13.4662 103.745 12.5414C103.745 11.2203 103.324 10.2011 102.483 9.48393C101.642 8.76674 100.427 8.40814 98.8375 8.40814H94.8836V16.8729Z" fill="white"/>
<path d="M121.917 40.4836V0.849306H132.236V30.9714H147.547V40.4836H121.917Z" fill="white"/>
<path d="M170.605 41.3329C167.558 41.3329 164.754 40.8139 162.193 39.7759C159.632 38.719 157.407 37.2563 155.519 35.3878C153.631 33.5193 152.163 31.33 151.116 28.8198C150.088 26.3096 149.574 23.5919 149.574 20.6665C149.574 17.7222 150.088 14.995 151.116 12.4848C152.163 9.97464 153.631 7.78531 155.519 5.91684C157.407 4.04836 159.632 2.5951 162.193 1.55706C164.754 0.51902 167.558 0 170.605 0C173.653 0 176.447 0.528458 178.99 1.58537C181.551 2.64229 183.776 4.11442 185.664 6.00177C187.571 7.88912 189.048 10.0879 190.094 12.5981C191.141 15.0894 191.665 17.7788 191.665 20.6665C191.665 23.5919 191.141 26.3096 190.094 28.8198C189.048 31.33 187.571 33.5193 185.664 35.3878C183.776 37.2563 181.551 38.719 178.99 39.7759C176.447 40.8139 173.653 41.3329 170.605 41.3329ZM170.605 31.5659C172.101 31.5659 173.466 31.3111 174.699 30.8015C175.952 30.292 177.036 29.5653 177.952 28.6216C178.868 27.6591 179.579 26.5078 180.084 25.1678C180.588 23.8278 180.841 22.3273 180.841 20.6665C180.841 18.4394 180.401 16.5143 179.523 14.8912C178.644 13.2492 177.429 11.9847 175.877 11.0976C174.344 10.2106 172.587 9.76703 170.605 9.76703C169.128 9.76703 167.764 10.0218 166.511 10.5314C165.259 11.041 164.174 11.7676 163.258 12.7113C162.342 13.655 161.632 14.8063 161.127 16.1651C160.641 17.5052 160.398 19.0056 160.398 20.6665C160.398 22.8935 160.837 24.8281 161.716 26.4701C162.595 28.0932 163.8 29.3483 165.333 30.2353C166.866 31.1224 168.624 31.5659 170.605 31.5659Z" fill="white"/>
<path d="M197.044 19.8232C197.044 17.0658 197.399 14.5308 198.107 12.2183C198.822 9.89847 199.841 7.7647 201.163 5.81695H203.418C202.897 6.53915 202.41 7.42913 201.954 8.4869C201.506 9.53737 201.113 10.6936 200.773 11.9556C200.433 13.2104 200.166 14.5089 199.971 15.8511C199.783 17.1934 199.689 18.5175 199.689 19.8232C199.689 21.5594 199.855 23.3212 200.188 25.1084C200.52 26.8957 200.968 28.5553 201.532 30.0872C202.095 31.6192 202.724 32.8666 203.418 33.8296H201.163C199.841 31.8818 198.822 29.7517 198.107 27.4392C197.399 25.1194 197.044 22.5807 197.044 19.8232Z" fill="white"/>
<path d="M218.494 30.3252C211.78 30.3252 206.408 24.9019 206.408 18.1229C206.408 11.3438 211.78 5.92059 218.494 5.92059C225.209 5.92059 230.581 11.3438 230.581 18.1229C230.581 24.9019 225.209 30.3252 218.494 30.3252ZM207.69 18.1229H218.494V7.21478C212.482 7.21478 207.69 12.0526 207.69 18.1229Z" fill="white"/>
<path d="M244.524 36.5433C242.558 36.5433 240.875 36.3536 239.473 35.9743C238.071 35.6022 236.871 35.0879 235.874 34.4314C234.877 33.7821 234.003 33.0417 233.251 32.2101L234.899 31.0283C235.896 31.7286 237.153 32.3195 238.671 32.801C240.188 33.2824 242.139 33.5232 244.524 33.5232C246.113 33.5232 247.526 33.4064 248.762 33.173C250.004 32.9396 251.092 32.6332 252.024 32.2538C252.963 31.8745 253.773 31.466 254.452 31.0283L255.839 32.2101C255.232 32.9833 254.419 33.6982 253.401 34.3548C252.389 35.0113 251.146 35.5402 249.672 35.9414C248.205 36.3427 246.489 36.5433 244.524 36.5433Z" fill="white"/>
<path d="M270.566 30.3252C263.852 30.3252 258.48 24.9019 258.48 18.1229C258.48 11.3438 263.852 5.92059 270.566 5.92059C277.281 5.92059 282.653 11.3438 282.653 18.1229C282.653 24.9019 277.281 30.3252 270.566 30.3252ZM259.762 18.1229H270.566V7.21478C264.554 7.21478 259.762 12.0526 259.762 18.1229Z" fill="white"/>
<path d="M292 19.8232C292 22.5807 291.642 25.1194 290.927 27.4392C290.219 29.7517 289.204 31.8818 287.881 33.8296H285.627C286.147 33.1074 286.631 32.2174 287.079 31.1596C287.534 30.1091 287.932 28.9565 288.271 27.7018C288.611 26.4398 288.875 25.1376 289.063 23.7953C289.258 22.4458 289.355 21.1217 289.355 19.8232C289.355 18.0871 289.189 16.3253 288.857 14.5381C288.524 12.7508 288.076 11.0912 287.513 9.55926C286.949 8.02732 286.32 6.77988 285.627 5.81695H287.881C289.204 7.7647 290.219 9.89847 290.927 12.2183C291.642 14.5308 292 17.0658 292 19.8232Z" fill="white"/>
</svg>
