<svg width="146" height="40" viewBox="0 0 146 40" fill="none" xmlns="http://www.w3.org/2000/svg">
<path d="M30.1822 13.4592L25.5753 12.1413L26.8106 7.26629L31.4174 8.58412L30.1822 13.4592ZM29.3114 9.86981L28.0255 9.49482L27.6813 10.8555L28.9672 11.2306L29.3114 9.86981Z" fill="white"/>
<path d="M87.1425 13.4592L82.5356 12.1413L83.7709 7.26629L88.3777 8.58412L87.1425 13.4592ZM86.2717 9.86981L84.9858 9.49482L84.6416 10.8555L85.9275 11.2306L86.2717 9.86981Z" fill="white"/>
<path d="M25.3081 40V20.1828H30.2715L37.5484 32.4553L35.4873 32.4836L42.3576 20.1828H47.307V40H42.3296L42.4277 26.7791L43.3251 27.1188L37.9971 36.4471H34.618L29.0517 27.1188L29.935 26.7791L30.0332 40H25.3081Z" fill="white"/>
<path d="M49.5605 40L56.8093 20.1828H62.8664L70.1293 40H64.3106L63.0767 36.2206H56.4448L55.225 40H49.5605ZM57.5805 31.8891H61.913L59.7537 25.6326L57.5805 31.8891Z" fill="white"/>
<path d="M72.3825 40V20.1828H80.5287C82.0243 20.1828 83.3282 20.4235 84.4405 20.9047C85.5622 21.386 86.4269 22.0843 87.0344 22.9997C87.6514 23.9056 87.9598 25.005 87.9598 26.2978C87.9598 27.2604 87.7822 28.1097 87.427 28.8458C87.0812 29.5724 86.6091 30.1858 86.0109 30.6859C85.4127 31.1861 84.7443 31.5636 84.0059 31.8183L89.0675 40H82.9683L78.9443 32.9366H77.5422V40H72.3825ZM77.5422 28.8175H79.9538C80.8231 28.8175 81.5055 28.6523 82.0009 28.322C82.5057 27.9823 82.758 27.4208 82.758 26.6376C82.758 25.8449 82.515 25.2787 82.0289 24.939C81.5522 24.5992 80.8839 24.4294 80.0239 24.4294H77.5422V28.8175Z" fill="white"/>
<path d="M91.8531 40V20.1828H97.0128V28.0814L103.182 20.1828H109.632L102.341 29.3412L110.529 40H103.911L98.9477 33.2622L97.0128 35.4421V40H91.8531Z" fill="white"/>
<path d="M112.748 40V20.1828H126.923V24.6842H117.907V27.8124H125.381V31.9457H117.907V35.4421H127.035V40H112.748Z" fill="white"/>
<path d="M134.132 40V24.9248H128.986V20.1828H144.465V24.9248H139.32V40H134.132Z" fill="white"/>
<path d="M0 20.2418V0.424653H8.1462C9.64177 0.424653 10.9457 0.66529 12.0581 1.14656C13.1797 1.62784 14.0444 2.32616 14.6519 3.24152C15.2689 4.14745 15.5773 5.24683 15.5773 6.53966C15.5773 7.50221 15.3997 8.35152 15.0445 9.08759C14.6987 9.81422 14.2266 10.4276 13.6284 10.9278C13.0302 11.4279 12.3618 11.8054 11.6234 12.0602L16.685 20.2418H10.5859L6.56183 13.1784H5.15973V20.2418H0ZM5.15973 9.05928H7.57134C8.44064 9.05928 9.123 8.89413 9.61841 8.56385C10.1232 8.22412 10.3755 7.66264 10.3755 6.87939C10.3755 6.0867 10.1325 5.5205 9.64645 5.18077C9.16973 4.84105 8.5014 4.67119 7.64144 4.67119H5.15973V9.05928Z" fill="white"/>
<path d="M28.5067 20.6665C26.983 20.6665 25.5809 20.407 24.3004 19.8879C23.0198 19.3595 21.9074 18.6281 20.9634 17.6939C20.0193 16.7597 19.2855 15.665 18.7621 14.4099C18.248 13.1548 17.9909 11.7959 17.9909 10.3332C17.9909 8.8611 18.248 7.49749 18.7621 6.24241C19.2855 4.98732 20.0193 3.89266 20.9634 2.95842C21.9074 2.02418 23.0198 1.29755 24.3004 0.778531C25.5809 0.25951 26.983 0 28.5067 0C30.0303 0 31.4277 0.264229 32.6989 0.792686C33.9795 1.32114 35.0919 2.05721 36.0359 3.00088C36.9894 3.94456 37.7278 5.04394 38.2513 6.29903C38.7747 7.54468 39.0364 8.88941 39.0364 10.3332C39.0364 11.7959 38.7747 13.1548 38.2513 14.4099C37.7278 15.665 36.9894 16.7597 36.0359 17.6939C35.0919 18.6281 33.9795 19.3595 32.6989 19.8879C31.4277 20.407 30.0303 20.6665 28.5067 20.6665ZM28.5067 15.783C29.2544 15.783 29.9368 15.6556 30.5537 15.4008C31.18 15.146 31.7221 14.7827 32.1802 14.3108C32.6382 13.8295 32.9934 13.2539 33.2458 12.5839C33.4981 11.9139 33.6243 11.1637 33.6243 10.3332C33.6243 9.2197 33.4047 8.25715 32.9653 7.44559C32.526 6.62459 31.9184 5.99233 31.1426 5.54881C30.3761 5.10528 29.4975 4.88352 28.5067 4.88352C27.7682 4.88352 27.0859 5.01091 26.4596 5.2657C25.8333 5.5205 25.2912 5.88381 24.8332 6.35565C24.3751 6.82748 24.0199 7.40313 23.7676 8.08257C23.5245 8.75258 23.403 9.5028 23.403 10.3332C23.403 11.4468 23.6227 12.414 24.062 13.235C24.5013 14.0466 25.1042 14.6741 25.8707 15.1177C26.6372 15.5612 27.5158 15.783 28.5067 15.783Z" fill="white"/>
<path d="M42.2821 20.2418V0.424653H50.1759C52.2136 0.424653 53.8354 0.849307 55.0412 1.69861C56.2563 2.53848 56.8639 3.78885 56.8639 5.44972C56.8639 6.04424 56.7471 6.59157 56.5134 7.09171C56.2891 7.58242 55.9759 8.02123 55.574 8.40814C55.172 8.78561 54.7187 9.10174 54.2139 9.35653C55.2608 9.734 56.0974 10.3663 56.7237 11.2533C57.3593 12.1309 57.6771 13.1643 57.6771 14.3533C57.6771 15.5612 57.378 16.604 56.7798 17.4816C56.1816 18.3592 55.3309 19.0386 54.228 19.5199C53.1343 20.0012 51.8257 20.2418 50.3021 20.2418H42.2821ZM47.4418 16.4624H49.601C50.4984 16.4624 51.1714 16.2737 51.6201 15.8962C52.0687 15.5093 52.2931 14.9478 52.2931 14.2117C52.2931 13.4945 52.0827 12.9378 51.6621 12.5414C51.2415 12.1451 50.6246 11.9469 49.8113 11.9469H47.4418V16.4624ZM47.4418 8.43645H49.5029C49.9983 8.43645 50.4189 8.35152 50.7648 8.18166C51.12 8.0118 51.391 7.76644 51.578 7.44559C51.7743 7.12474 51.8724 6.73312 51.8724 6.27072C51.8724 5.61014 51.6621 5.10056 51.2415 4.74196C50.8209 4.38337 50.2133 4.20407 49.4188 4.20407H47.4418V8.43645Z" fill="white"/>
<path d="M60.9585 20.2418V0.424653H66.1182V15.4857H73.7737V20.2418H60.9585Z" fill="white"/>
<path d="M85.3027 20.6665C83.779 20.6665 82.3769 20.407 81.0964 19.8879C79.8158 19.3595 78.7034 18.6281 77.7594 17.6939C76.8153 16.7597 76.0815 15.665 75.5581 14.4099C75.044 13.1548 74.7869 11.7959 74.7869 10.3332C74.7869 8.8611 75.044 7.49749 75.5581 6.24241C76.0815 4.98732 76.8153 3.89266 77.7594 2.95842C78.7034 2.02418 79.8158 1.29755 81.0964 0.778531C82.3769 0.25951 83.779 0 85.3027 0C86.8263 0 88.2237 0.264229 89.4949 0.792686C90.7755 1.32114 91.8879 2.05721 92.8319 3.00088C93.7854 3.94456 94.5238 5.04394 95.0472 6.29903C95.5707 7.54468 95.8324 8.88941 95.8324 10.3332C95.8324 11.7959 95.5707 13.1548 95.0472 14.4099C94.5238 15.665 93.7854 16.7597 92.8319 17.6939C91.8879 18.6281 90.7755 19.3595 89.4949 19.8879C88.2237 20.407 86.8263 20.6665 85.3027 20.6665ZM85.3027 15.783C86.0504 15.783 86.7328 15.6556 87.3497 15.4008C87.976 15.146 88.5181 14.7827 88.9762 14.3108C89.4342 13.8295 89.7894 13.2539 90.0418 12.5839C90.2941 11.9139 90.4203 11.1637 90.4203 10.3332C90.4203 9.2197 90.2007 8.25715 89.7613 7.44559C89.322 6.62459 88.7144 5.99233 87.9386 5.54881C87.1721 5.10528 86.2935 4.88352 85.3027 4.88352C84.5642 4.88352 83.8819 5.01091 83.2556 5.2657C82.6293 5.5205 82.0872 5.88381 81.6292 6.35565C81.1711 6.82748 80.8159 7.40313 80.5636 8.08257C80.3205 8.75258 80.199 9.5028 80.199 10.3332C80.199 11.4468 80.4187 12.414 80.858 13.235C81.2973 14.0466 81.9002 14.6741 82.6667 15.1177C83.4332 15.5612 84.3118 15.783 85.3027 15.783Z" fill="white"/>
<path d="M98.5222 9.91162C98.5222 8.53288 98.6993 7.26538 99.0533 6.10913C99.411 4.94924 99.9204 3.88235 100.582 2.90847H101.709C101.449 3.26957 101.205 3.71457 100.977 4.24345C100.753 4.76869 100.556 5.34681 100.386 5.97782C100.217 6.60519 100.083 7.25444 99.9855 7.92557C99.8915 8.59671 99.8446 9.25873 99.8446 9.91162C99.8446 10.7797 99.9277 11.6606 100.094 12.5542C100.26 13.4479 100.484 14.2777 100.766 15.0436C101.048 15.8096 101.362 16.4333 101.709 16.9148H100.582C99.9204 15.9409 99.411 14.8758 99.0533 13.7196C98.6993 12.5597 98.5222 11.2904 98.5222 9.91162Z" fill="white"/>
<path d="M109.247 15.1626C105.89 15.1626 103.204 12.451 103.204 9.06144C103.204 5.67192 105.89 2.9603 109.247 2.9603C112.605 2.9603 115.291 5.67192 115.291 9.06144C115.291 12.451 112.605 15.1626 109.247 15.1626ZM103.845 9.06144H109.247V3.60739C106.241 3.60739 103.845 6.02628 103.845 9.06144Z" fill="white"/>
<path d="M122.262 18.2716C121.279 18.2716 120.437 18.1768 119.736 17.9871C119.035 17.8011 118.436 17.544 117.937 17.2157C117.439 16.8911 117.001 16.5208 116.626 16.105L117.449 15.5141C117.948 15.8643 118.577 16.1597 119.335 16.4005C120.094 16.6412 121.07 16.7616 122.262 16.7616C123.057 16.7616 123.763 16.7032 124.381 16.5865C125.002 16.4698 125.546 16.3166 126.012 16.1269C126.482 15.9373 126.886 15.733 127.226 15.5141L127.92 16.105C127.616 16.4917 127.21 16.8491 126.7 17.1774C126.194 17.5057 125.573 17.7701 124.836 17.9707C124.103 18.1713 123.244 18.2716 122.262 18.2716Z" fill="white"/>
<path d="M135.283 15.1626C131.926 15.1626 129.24 12.451 129.24 9.06144C129.24 5.67192 131.926 2.9603 135.283 2.9603C138.641 2.9603 141.327 5.67192 141.327 9.06144C141.327 12.451 138.641 15.1626 135.283 15.1626ZM129.881 9.06144H135.283V3.60739C132.277 3.60739 129.881 6.02628 129.881 9.06144Z" fill="white"/>
<path d="M146 9.91162C146 11.2904 145.821 12.5597 145.463 13.7196C145.109 14.8758 144.602 15.9409 143.941 16.9148H142.813C143.074 16.5537 143.316 16.1087 143.54 15.5798C143.767 15.0546 143.966 14.4783 144.136 13.8509C144.306 13.2199 144.437 12.5688 144.531 11.8977C144.629 11.2229 144.678 10.5609 144.678 9.91162C144.678 9.04353 144.595 8.16266 144.428 7.26903C144.262 6.3754 144.038 5.5456 143.756 4.77963C143.475 4.01366 143.16 3.38994 142.813 2.90847H143.941C144.602 3.88235 145.109 4.94924 145.463 6.10913C145.821 7.26538 146 8.53288 146 9.91162Z" fill="white"/>
</svg>
