<svg width="563" height="52" viewBox="0 0 563 52" fill="none" xmlns="http://www.w3.org/2000/svg">
<path d="M13.312 40.336H11.312V42.336H13.312V40.336ZM13.312 30.608V28.608H11.312V30.608H13.312ZM46.464 30.608H48.464V28.608H46.464V30.608ZM46.464 40.336V42.336H48.464V40.336H46.464ZM38.016 2L39.8321 1.16219L39.2959 -3.8147e-06H38.016V2ZM60.16 50V52H63.2852L61.9761 49.1622L60.16 50ZM47.296 50L45.4671 50.8095L45.9941 52H47.296V50ZM28.288 7.056V5.056H25.2156L26.4591 7.86549L28.288 7.056ZM32 7.056L33.8299 7.86321L35.0682 5.056H32V7.056ZM13.056 50V52H14.3597L14.8859 50.8072L13.056 50ZM0.192 50L-1.62406 49.1622L-2.93324 52H0.192V50ZM22.336 2V-3.8147e-06H21.0561L20.5199 1.16219L22.336 2ZM15.312 40.336V30.608H11.312V40.336H15.312ZM13.312 32.608H46.464V28.608H13.312V32.608ZM44.464 30.608V40.336H48.464V30.608H44.464ZM46.464 38.336H13.312V42.336H46.464V38.336ZM36.1999 2.83781L58.3439 50.8378L61.9761 49.1622L39.8321 1.16219L36.1999 2.83781ZM60.16 48H47.296V52H60.16V48ZM49.1249 49.1905L30.1169 6.24651L26.4591 7.86549L45.4671 50.8095L49.1249 49.1905ZM28.288 9.056H32V5.056H28.288V9.056ZM30.1701 6.24879L11.2261 49.1928L14.8859 50.8072L33.8299 7.86321L30.1701 6.24879ZM13.056 48H0.192V52H13.056V48ZM2.00806 50.8378L24.1521 2.83781L20.5199 1.16219L-1.62406 49.1622L2.00806 50.8378ZM22.336 4H38.016V-3.8147e-06H22.336V4ZM65.047 50H63.047V52H65.047V50ZM65.047 2V-3.8147e-06H63.047V2H65.047ZM77.079 2H79.079V-3.8147e-06H77.079V2ZM77.079 40.336L75.8641 41.9247L79.079 44.3832V40.336H77.079ZM73.815 37.84L72.2478 36.5974L70.9833 38.1923L72.6001 39.4287L73.815 37.84ZM102.231 2V-3.8147e-06H101.264L100.664 0.757444L102.231 2ZM115.031 2L116.582 3.2632L119.24 -3.8147e-06H115.031V2ZM75.927 50V52H76.8773L77.4776 51.2632L75.927 50ZM88.023 26.768L86.7187 25.2518L85.4401 26.3518L86.3084 27.7977L88.023 26.768ZM96.727 19.28L98.4293 18.2302L97.1992 16.2355L95.4227 17.7638L96.727 19.28ZM115.671 50V52H119.254L117.373 48.9502L115.671 50ZM101.975 50L100.26 51.0297L100.843 52H101.975V50ZM67.047 50V2H63.047V50H67.047ZM65.047 4H77.079V-3.8147e-06H65.047V4ZM75.079 2V40.336H79.079V2H75.079ZM78.2939 38.7473L75.0299 36.2513L72.6001 39.4287L75.8641 41.9247L78.2939 38.7473ZM75.3822 39.0826L103.798 3.24255L100.664 0.757444L72.2478 36.5974L75.3822 39.0826ZM102.231 4H115.031V-3.8147e-06H102.231V4ZM113.48 0.736788L74.3764 48.7368L77.4776 51.2632L116.582 3.2632L113.48 0.736788ZM75.927 48H65.047V52H75.927V48ZM89.3273 28.2841L98.0313 20.7961L95.4227 17.7638L86.7187 25.2518L89.3273 28.2841ZM95.0247 20.3298L113.969 51.0498L117.373 48.9502L98.4293 18.2302L95.0247 20.3298ZM115.671 48H101.975V52H115.671V48ZM103.69 48.9703L89.7376 25.7383L86.3084 27.7977L100.26 51.0297L103.69 48.9703ZM169.657 30.16L171.644 30.3854L171.896 28.16H169.657V30.16ZM165.369 41.104L166.955 42.3213L166.963 42.3109L165.369 41.104ZM155.897 48.4L155.082 46.5732L155.897 48.4ZM127.929 47.888L127.027 49.6732L127.034 49.6769L127.929 47.888ZM118.265 39.12L116.56 40.166L116.56 40.166L118.265 39.12ZM118.265 12.88L116.56 11.834L116.56 11.834L118.265 12.88ZM127.929 4.112L127.034 2.32313L127.027 2.32684L127.929 4.112ZM165.369 10.896L163.782 12.1133L163.782 12.1133L165.369 10.896ZM169.657 21.84V23.84H171.894L171.644 21.6169L169.657 21.84ZM157.497 21.84L155.534 22.2248L155.851 23.84H157.497V21.84ZM154.873 16.272L153.336 17.5524L153.346 17.5648L153.357 17.577L154.873 16.272ZM149.753 12.752L148.997 14.6037L149.019 14.6129L149.042 14.6216L149.753 12.752ZM134.201 13.264L135.095 15.0529L135.108 15.0463L135.121 15.0395L134.201 13.264ZM128.889 18.256L130.627 19.2446L130.627 19.2446L128.889 18.256ZM128.889 33.744L127.15 34.7326L127.15 34.7326L128.889 33.744ZM134.201 38.8L133.28 40.5755L133.293 40.5823L133.306 40.5889L134.201 38.8ZM149.753 39.312L149.042 37.4424L149.029 37.4473L149.753 39.312ZM154.873 35.792L153.357 34.487L153.346 34.4992L153.336 34.5116L154.873 35.792ZM157.497 30.16V28.16H155.844L155.532 29.7823L157.497 30.16ZM167.669 29.9346C167.238 33.7362 165.935 37.0409 163.774 39.8971L166.963 42.3109C169.581 38.8524 171.136 34.8612 171.644 30.3854L167.669 29.9346ZM163.782 39.8867C161.614 42.7125 158.733 44.9463 155.082 46.5732L156.711 50.2268C160.911 48.355 164.344 45.7248 166.955 42.3213L163.782 39.8867ZM155.082 46.5732C151.453 48.1904 147.258 49.024 142.457 49.024V53.024C147.724 53.024 152.489 52.1082 156.711 50.2268L155.082 46.5732ZM142.457 49.024C137.208 49.024 132.681 48.0284 128.823 46.0991L127.034 49.6769C131.538 51.929 136.697 53.024 142.457 53.024V49.024ZM128.83 46.1028C125.004 44.1702 122.069 41.4957 119.969 38.074L116.56 40.166C119.068 44.2537 122.575 47.4245 127.027 49.6732L128.83 46.1028ZM119.969 38.074C117.883 34.6744 116.809 30.6731 116.809 26H112.809C112.809 31.3109 114.038 36.0563 116.56 40.166L119.969 38.074ZM116.809 26C116.809 21.3269 117.883 17.3256 119.969 13.926L116.56 11.834C114.038 15.9437 112.809 20.6891 112.809 26H116.809ZM119.969 13.926C122.069 10.5043 125.004 7.82983 128.83 5.89716L127.027 2.32684C122.575 4.5755 119.068 7.74633 116.56 11.834L119.969 13.926ZM128.823 5.90085C132.681 3.97164 137.208 2.976 142.457 2.976V-1.024C136.697 -1.024 131.538 0.0710234 127.034 2.32315L128.823 5.90085ZM142.457 2.976C147.258 2.976 151.453 3.80957 155.082 5.4268L156.711 1.7732C152.489 -0.108236 147.724 -1.024 142.457 -1.024V2.976ZM155.082 5.4268C158.733 7.05366 161.614 9.2875 163.782 12.1133L166.955 9.67868C164.344 6.27516 160.911 3.645 156.711 1.7732L155.082 5.4268ZM163.782 12.1133C165.933 14.9184 167.237 18.2165 167.669 22.0631L171.644 21.6169C171.137 17.1009 169.582 13.1029 166.955 9.67868L163.782 12.1133ZM169.657 19.84H157.497V23.84H169.657V19.84ZM159.459 21.4552C158.972 18.9717 157.958 16.79 156.388 14.967L153.357 17.577C154.432 18.826 155.167 20.3563 155.534 22.2248L159.459 21.4552ZM156.409 14.9916C154.879 13.156 152.872 11.7977 150.463 10.8824L149.042 14.6216C150.9 15.3276 152.306 16.316 153.336 17.5524L156.409 14.9916ZM150.508 10.9003C148.13 9.92946 145.432 9.472 142.457 9.472V13.472C145.028 13.472 147.194 13.8679 148.997 14.6037L150.508 10.9003ZM142.457 9.472C139.01 9.472 135.927 10.1159 133.28 11.4885L135.121 15.0395C137.082 14.0228 139.503 13.472 142.457 13.472V9.472ZM133.306 11.4751C130.659 12.7989 128.589 14.7364 127.15 17.2674L130.627 19.2446C131.663 17.4236 133.134 16.0331 135.095 15.0529L133.306 11.4751ZM127.15 17.2674C125.711 19.7981 125.033 22.7338 125.033 26H129.033C129.033 23.2929 129.591 21.0659 130.627 19.2446L127.15 17.2674ZM125.033 26C125.033 29.2662 125.711 32.2019 127.15 34.7326L130.627 32.7554C129.591 30.9341 129.033 28.7071 129.033 26H125.033ZM127.15 34.7326C128.585 37.2572 130.646 39.2099 133.28 40.5755L135.121 37.0245C133.147 36.0007 131.666 34.5828 130.627 32.7554L127.15 34.7326ZM133.306 40.5889C135.947 41.9093 139.02 42.528 142.457 42.528V38.528C139.493 38.528 137.062 37.9947 135.095 37.0111L133.306 40.5889ZM142.457 42.528C145.421 42.528 148.107 42.0952 150.476 41.1767L149.029 37.4473C147.217 38.1501 145.039 38.528 142.457 38.528V42.528ZM150.463 41.1816C152.872 40.2663 154.879 38.908 156.409 37.0724L153.336 34.5116C152.306 35.748 150.9 36.7364 149.042 37.4424L150.463 41.1816ZM156.388 37.097C157.964 35.267 158.976 33.0591 159.461 30.5377L155.532 29.7823C155.164 31.6982 154.426 33.245 153.357 34.487L156.388 37.097ZM157.497 32.16H169.657V28.16H157.497V32.16ZM216.619 21.52H218.619V19.52H216.619V21.52ZM216.619 30.48V32.48H218.619V30.48H216.619ZM181.867 30.48H179.867V32.48H181.867V30.48ZM181.867 21.52V19.52H179.867V21.52H181.867ZM190.059 26L192.033 26.3185L192.084 26L192.033 25.6815L190.059 26ZM186.859 45.84L185.363 47.1677L188.162 50.3208L188.833 46.1585L186.859 45.84ZM181.803 40.144V38.144H177.353L180.307 41.4717L181.803 40.144ZM218.667 40.144H220.667V38.144H218.667V40.144ZM218.667 50V52H220.667V50H218.667ZM174.763 50L172.786 49.6943L172.429 52H174.763V50ZM178.475 26L180.451 26.3057L180.498 26L180.451 25.6943L178.475 26ZM174.763 2V-3.8147e-06H172.429L172.786 2.30569L174.763 2ZM218.347 2H220.347V-3.8147e-06H218.347V2ZM218.347 11.856V13.856H220.347V11.856H218.347ZM181.803 11.856L180.307 10.5283L177.353 13.856H181.803V11.856ZM186.859 6.16L188.833 5.84153L188.162 1.67915L185.363 4.83231L186.859 6.16ZM214.619 21.52V30.48H218.619V21.52H214.619ZM216.619 28.48H181.867V32.48H216.619V28.48ZM183.867 30.48V21.52H179.867V30.48H183.867ZM181.867 23.52H216.619V19.52H181.867V23.52ZM188.084 25.6815L184.884 45.5215L188.833 46.1585L192.033 26.3185L188.084 25.6815ZM188.354 44.5123L183.298 38.8163L180.307 41.4717L185.363 47.1677L188.354 44.5123ZM181.803 42.144H218.667V38.144H181.803V42.144ZM216.667 40.144V50H220.667V40.144H216.667ZM218.667 48H174.763V52H218.667V48ZM176.739 50.3057L180.451 26.3057L176.498 25.6943L172.786 49.6943L176.739 50.3057ZM180.451 25.6943L176.739 1.6943L172.786 2.30569L176.498 26.3057L180.451 25.6943ZM174.763 4H218.347V-3.8147e-06H174.763V4ZM216.347 2V11.856H220.347V2H216.347ZM218.347 9.856H181.803V13.856H218.347V9.856ZM183.298 13.1837L188.354 7.48768L185.363 4.83231L180.307 10.5283L183.298 13.1837ZM184.884 6.47846L188.084 26.3185L192.033 25.6815L188.833 5.84153L184.884 6.47846ZM278.532 30.16L280.519 30.3854L280.771 28.16H278.532V30.16ZM274.244 41.104L275.83 42.3213L275.838 42.3109L274.244 41.104ZM264.772 48.4L263.957 46.5732L264.772 48.4ZM236.804 47.888L235.902 49.6732L235.909 49.6769L236.804 47.888ZM227.14 39.12L225.435 40.166L225.435 40.166L227.14 39.12ZM227.14 12.88L225.435 11.834L225.435 11.834L227.14 12.88ZM236.804 4.112L235.909 2.32313L235.902 2.32684L236.804 4.112ZM274.244 10.896L272.657 12.1133L272.657 12.1133L274.244 10.896ZM278.532 21.84V23.84H280.769L280.519 21.6169L278.532 21.84ZM266.372 21.84L264.409 22.2248L264.726 23.84H266.372V21.84ZM263.748 16.272L262.211 17.5524L262.221 17.5648L262.232 17.577L263.748 16.272ZM258.628 12.752L257.872 14.6037L257.894 14.6129L257.917 14.6216L258.628 12.752ZM243.076 13.264L243.97 15.0529L243.983 15.0463L243.996 15.0395L243.076 13.264ZM237.764 18.256L239.502 19.2446L239.502 19.2446L237.764 18.256ZM237.764 33.744L236.025 34.7326L236.025 34.7326L237.764 33.744ZM243.076 38.8L242.155 40.5755L242.168 40.5823L242.181 40.5889L243.076 38.8ZM258.628 39.312L257.917 37.4424L257.904 37.4473L258.628 39.312ZM263.748 35.792L262.232 34.487L262.221 34.4992L262.211 34.5116L263.748 35.792ZM266.372 30.16V28.16H264.719L264.407 29.7823L266.372 30.16ZM276.544 29.9346C276.113 33.7362 274.81 37.0409 272.649 39.8971L275.838 42.3109C278.456 38.8524 280.011 34.8612 280.519 30.3854L276.544 29.9346ZM272.657 39.8867C270.489 42.7125 267.608 44.9463 263.957 46.5732L265.586 50.2268C269.786 48.355 273.219 45.7248 275.83 42.3213L272.657 39.8867ZM263.957 46.5732C260.328 48.1904 256.133 49.024 251.332 49.024V53.024C256.599 53.024 261.364 52.1082 265.586 50.2268L263.957 46.5732ZM251.332 49.024C246.083 49.024 241.556 48.0284 237.698 46.0991L235.909 49.6769C240.413 51.929 245.572 53.024 251.332 53.024V49.024ZM237.705 46.1028C233.879 44.1702 230.944 41.4957 228.844 38.074L225.435 40.166C227.943 44.2537 231.45 47.4245 235.902 49.6732L237.705 46.1028ZM228.844 38.074C226.758 34.6744 225.684 30.6731 225.684 26H221.684C221.684 31.3109 222.913 36.0563 225.435 40.166L228.844 38.074ZM225.684 26C225.684 21.3269 226.758 17.3256 228.844 13.926L225.435 11.834C222.913 15.9437 221.684 20.6891 221.684 26H225.684ZM228.844 13.926C230.944 10.5043 233.879 7.82983 237.705 5.89716L235.902 2.32684C231.45 4.5755 227.943 7.74633 225.435 11.834L228.844 13.926ZM237.698 5.90085C241.556 3.97164 246.083 2.976 251.332 2.976V-1.024C245.572 -1.024 240.413 0.0710234 235.909 2.32315L237.698 5.90085ZM251.332 2.976C256.133 2.976 260.328 3.80957 263.957 5.4268L265.586 1.7732C261.364 -0.108236 256.599 -1.024 251.332 -1.024V2.976ZM263.957 5.4268C267.608 7.05366 270.489 9.2875 272.657 12.1133L275.83 9.67868C273.219 6.27516 269.786 3.645 265.586 1.7732L263.957 5.4268ZM272.657 12.1133C274.808 14.9184 276.112 18.2165 276.544 22.0631L280.519 21.6169C280.012 17.1009 278.457 13.1029 275.83 9.67868L272.657 12.1133ZM278.532 19.84H266.372V23.84H278.532V19.84ZM268.334 21.4552C267.847 18.9717 266.833 16.79 265.263 14.967L262.232 17.577C263.307 18.826 264.042 20.3563 264.409 22.2248L268.334 21.4552ZM265.284 14.9916C263.754 13.156 261.747 11.7977 259.338 10.8824L257.917 14.6216C259.775 15.3276 261.181 16.316 262.211 17.5524L265.284 14.9916ZM259.383 10.9003C257.005 9.92946 254.307 9.472 251.332 9.472V13.472C253.903 13.472 256.069 13.8679 257.872 14.6037L259.383 10.9003ZM251.332 9.472C247.885 9.472 244.802 10.1159 242.155 11.4885L243.996 15.0395C245.957 14.0228 248.378 13.472 251.332 13.472V9.472ZM242.181 11.4751C239.534 12.7989 237.464 14.7364 236.025 17.2674L239.502 19.2446C240.538 17.4236 242.009 16.0331 243.97 15.0529L242.181 11.4751ZM236.025 17.2674C234.586 19.7981 233.908 22.7338 233.908 26H237.908C237.908 23.2929 238.466 21.0659 239.502 19.2446L236.025 17.2674ZM233.908 26C233.908 29.2662 234.586 32.2019 236.025 34.7326L239.502 32.7554C238.466 30.9341 237.908 28.7071 237.908 26H233.908ZM236.025 34.7326C237.46 37.2572 239.521 39.2099 242.155 40.5755L243.996 37.0245C242.022 36.0007 240.541 34.5828 239.502 32.7554L236.025 34.7326ZM242.181 40.5889C244.822 41.9093 247.895 42.528 251.332 42.528V38.528C248.368 38.528 245.937 37.9947 243.97 37.0111L242.181 40.5889ZM251.332 42.528C254.296 42.528 256.982 42.0952 259.351 41.1767L257.904 37.4473C256.092 38.1501 253.914 38.528 251.332 38.528V42.528ZM259.338 41.1816C261.747 40.2663 263.754 38.908 265.284 37.0724L262.211 34.5116C261.181 35.748 259.775 36.7364 257.917 37.4424L259.338 41.1816ZM265.263 37.097C266.839 35.267 267.851 33.0591 268.336 30.5377L264.407 29.7823C264.039 31.6982 263.301 33.245 262.232 34.487L265.263 37.097ZM266.372 32.16H278.532V28.16H266.372V32.16ZM337.969 30.16L339.956 30.3854L340.209 28.16H337.969V30.16ZM333.681 41.104L335.268 42.3213L335.276 42.3109L333.681 41.104ZM324.209 48.4L323.395 46.5732L324.209 48.4ZM296.241 47.888L295.339 49.6732L295.347 49.6769L296.241 47.888ZM286.577 39.12L284.872 40.166L284.872 40.166L286.577 39.12ZM286.577 12.88L284.872 11.834L284.872 11.834L286.577 12.88ZM296.241 4.112L295.347 2.32313L295.339 2.32684L296.241 4.112ZM333.681 10.896L332.094 12.1133L332.094 12.1133L333.681 10.896ZM337.969 21.84V23.84H340.206L339.957 21.6169L337.969 21.84ZM325.809 21.84L323.846 22.2248L324.163 23.84H325.809V21.84ZM323.185 16.272L321.649 17.5524L321.659 17.5648L321.669 17.577L323.185 16.272ZM318.065 12.752L317.309 14.6037L317.332 14.6129L317.355 14.6216L318.065 12.752ZM302.513 13.264L303.407 15.0529L303.421 15.0463L303.434 15.0395L302.513 13.264ZM297.201 18.256L298.94 19.2446L298.94 19.2446L297.201 18.256ZM297.201 33.744L295.462 34.7326L295.462 34.7326L297.201 33.744ZM302.513 38.8L301.592 40.5755L301.605 40.5823L301.619 40.5889L302.513 38.8ZM318.065 39.312L317.355 37.4424L317.342 37.4473L318.065 39.312ZM323.185 35.792L321.669 34.487L321.659 34.4992L321.649 34.5116L323.185 35.792ZM325.809 30.16V28.16H324.157L323.845 29.7823L325.809 30.16ZM335.982 29.9346C335.551 33.7362 334.248 37.0409 332.086 39.8971L335.276 42.3109C337.893 38.8524 339.449 34.8612 339.956 30.3854L335.982 29.9346ZM332.094 39.8867C329.926 42.7125 327.045 44.9463 323.395 46.5732L325.023 50.2268C329.223 48.355 332.657 45.7248 335.268 42.3213L332.094 39.8867ZM323.395 46.5732C319.766 48.1904 315.571 49.024 310.769 49.024V53.024C316.037 53.024 320.801 52.1082 325.023 50.2268L323.395 46.5732ZM310.769 49.024C305.521 49.024 300.994 48.0284 297.135 46.0991L295.347 49.6769C299.851 51.929 305.009 53.024 310.769 53.024V49.024ZM297.143 46.1028C293.317 44.1702 290.381 41.4957 288.282 38.074L284.872 40.166C287.381 44.2537 290.888 47.4245 295.339 49.6732L297.143 46.1028ZM288.282 38.074C286.196 34.6744 285.121 30.6731 285.121 26H281.121C281.121 31.3109 282.35 36.0563 284.872 40.166L288.282 38.074ZM285.121 26C285.121 21.3269 286.196 17.3256 288.282 13.926L284.872 11.834C282.35 15.9437 281.121 20.6891 281.121 26H285.121ZM288.282 13.926C290.381 10.5043 293.317 7.82983 297.143 5.89716L295.339 2.32684C290.888 4.5755 287.381 7.74633 284.872 11.834L288.282 13.926ZM297.135 5.90085C300.994 3.97164 305.521 2.976 310.769 2.976V-1.024C305.009 -1.024 299.851 0.0710234 295.347 2.32315L297.135 5.90085ZM310.769 2.976C315.571 2.976 319.766 3.80957 323.395 5.4268L325.023 1.7732C320.801 -0.108236 316.037 -1.024 310.769 -1.024V2.976ZM323.395 5.4268C327.045 7.05366 329.926 9.2875 332.094 12.1133L335.268 9.67868C332.657 6.27516 329.223 3.645 325.023 1.7732L323.395 5.4268ZM332.094 12.1133C334.246 14.9184 335.55 18.2165 335.981 22.0631L339.957 21.6169C339.45 17.1009 337.895 13.1029 335.268 9.67868L332.094 12.1133ZM337.969 19.84H325.809V23.84H337.969V19.84ZM327.772 21.4552C327.285 18.9717 326.27 16.79 324.701 14.967L321.669 17.577C322.745 18.826 323.48 20.3563 323.846 22.2248L327.772 21.4552ZM324.721 14.9916C323.192 13.156 321.184 11.7977 318.775 10.8824L317.355 14.6216C319.213 15.3276 320.618 16.316 321.649 17.5524L324.721 14.9916ZM318.821 10.9003C316.442 9.92946 313.744 9.472 310.769 9.472V13.472C313.341 13.472 315.506 13.8679 317.309 14.6037L318.821 10.9003ZM310.769 9.472C307.322 9.472 304.24 10.1159 301.592 11.4885L303.434 15.0395C305.394 14.0228 307.816 13.472 310.769 13.472V9.472ZM301.619 11.4751C298.971 12.7989 296.902 14.7364 295.462 17.2674L298.94 19.2446C299.975 17.4236 301.447 16.0331 303.407 15.0529L301.619 11.4751ZM295.462 17.2674C294.023 19.7981 293.345 22.7338 293.345 26H297.345C297.345 23.2929 297.904 21.0659 298.94 19.2446L295.462 17.2674ZM293.345 26C293.345 29.2662 294.023 32.2019 295.462 34.7326L298.94 32.7554C297.904 30.9341 297.345 28.7071 297.345 26H293.345ZM295.462 34.7326C296.898 37.2572 298.959 39.2099 301.592 40.5755L303.434 37.0245C301.459 36.0007 299.979 34.5828 298.94 32.7554L295.462 34.7326ZM301.619 40.5889C304.259 41.9093 307.332 42.528 310.769 42.528V38.528C307.806 38.528 305.375 37.9947 303.407 37.0111L301.619 40.5889ZM310.769 42.528C313.733 42.528 316.419 42.0952 318.788 41.1767L317.342 37.4473C315.529 38.1501 313.352 38.528 310.769 38.528V42.528ZM318.775 41.1816C321.184 40.2663 323.192 38.908 324.721 37.0724L321.649 34.5116C320.618 35.748 319.213 36.7364 317.355 37.4424L318.775 41.1816ZM324.701 37.097C326.276 35.267 327.288 33.0591 327.773 30.5377L323.845 29.7823C323.477 31.6982 322.739 33.245 321.669 34.487L324.701 37.097ZM325.809 32.16H337.969V28.16H325.809V32.16ZM352.875 50L351.142 49.0012L349.414 52H352.875V50ZM361.323 35.344V33.344H360.167L359.59 34.3452L361.323 35.344ZM361.515 35.344V37.344H362.675L363.251 36.337L361.515 35.344ZM380.587 2V-3.8147e-06H379.427L378.851 1.007L380.587 2ZM393.643 2L395.375 2.99997L397.107 -3.8147e-06H393.643V2ZM365.931 50V52H367.086L367.663 51L365.931 50ZM361.195 43.28L359.465 44.2832L360.749 46.4982L362.587 44.7158L361.195 43.28ZM337.259 2V-3.8147e-06H333.787L335.529 3.00323L337.259 2ZM350.571 2L352.304 1.00123L351.727 -3.8147e-06H350.571V2ZM369.643 35.088L371.035 36.5238L372.154 35.4391L371.376 34.0892L369.643 35.088ZM354.608 50.9988L363.056 36.3428L359.59 34.3452L351.142 49.0012L354.608 50.9988ZM361.323 37.344H361.515V33.344H361.323V37.344ZM363.251 36.337L382.323 2.99299L378.851 1.007L359.779 34.351L363.251 36.337ZM380.587 4H393.643V-3.8147e-06H380.587V4ZM391.911 1.00002L364.199 49L367.663 51L395.375 2.99997L391.911 1.00002ZM365.931 48H352.875V52H365.931V48ZM362.925 42.2768L338.989 0.996761L335.529 3.00323L359.465 44.2832L362.925 42.2768ZM337.259 4H350.571V-3.8147e-06H337.259V4ZM348.838 2.99876L367.91 36.0868L371.376 34.0892L352.304 1.00123L348.838 2.99876ZM368.251 33.6522L359.803 41.8442L362.587 44.7158L371.035 36.5238L368.251 33.6522ZM397 40.336H395V42.336H397V40.336ZM397 30.608V28.608H395V30.608H397ZM430.152 30.608H432.152V28.608H430.152V30.608ZM430.152 40.336V42.336H432.152V40.336H430.152ZM421.704 2L423.52 1.16219L422.983 -3.8147e-06H421.704V2ZM443.848 50V52H446.973L445.664 49.1622L443.848 50ZM430.984 50L429.155 50.8095L429.682 52H430.984V50ZM411.976 7.056V5.056H408.903L410.147 7.86549L411.976 7.056ZM415.688 7.056L417.517 7.86321L418.756 5.056H415.688V7.056ZM396.744 50V52H398.047L398.573 50.8072L396.744 50ZM383.88 50L382.063 49.1622L380.754 52H383.88V50ZM406.024 2V-3.8147e-06H404.744L404.207 1.16219L406.024 2ZM399 40.336V30.608H395V40.336H399ZM397 32.608H430.152V28.608H397V32.608ZM428.152 30.608V40.336H432.152V30.608H428.152ZM430.152 38.336H397V42.336H430.152V38.336ZM419.887 2.83781L442.031 50.8378L445.664 49.1622L423.52 1.16219L419.887 2.83781ZM443.848 48H430.984V52H443.848V48ZM432.812 49.1905L413.804 6.24651L410.147 7.86549L429.155 50.8095L432.812 49.1905ZM411.976 9.056H415.688V5.056H411.976V9.056ZM413.858 6.24879L394.914 49.1928L398.573 50.8072L417.517 7.86321L413.858 6.24879ZM396.744 48H383.88V52H396.744V48ZM385.696 50.8378L407.84 2.83781L404.207 1.16219L382.063 49.1622L385.696 50.8378ZM406.024 4H421.704V-3.8147e-06H406.024V4ZM485.407 4.048L484.534 5.84762L484.55 5.85552L484.567 5.86312L485.407 4.048ZM491.935 9.68L490.23 10.7265L490.237 10.7373L490.244 10.748L491.935 9.68ZM491.935 26.704L490.244 25.636L490.237 25.6467L490.23 25.6575L491.935 26.704ZM485.407 32.4L486.257 34.2103L486.268 34.2047L485.407 32.4ZM454.303 34.384H452.303V36.384H454.303V34.384ZM454.303 24.592V22.592H452.303V24.592H454.303ZM480.095 22.928L481.38 24.4604L481.394 24.4484L481.408 24.4362L480.095 22.928ZM480.095 13.52L478.781 15.0282L478.795 15.0404L478.809 15.0524L480.095 13.52ZM455.391 11.792L453.952 10.4025L450.678 13.792H455.391V11.792ZM460.831 6.16H462.831V1.21063L459.392 4.77052L460.831 6.16ZM460.831 50V52H462.831V50H460.831ZM448.735 50H446.735V52H448.735V50ZM448.735 2V-3.8147e-06H446.735V2H448.735ZM475.295 4C478.992 4 482.05 4.64332 484.534 5.84762L486.279 2.24837C483.131 0.722002 479.447 -3.8147e-06 475.295 -3.8147e-06V4ZM484.567 5.86312C487.106 7.03819 488.964 8.66476 490.23 10.7265L493.639 8.63347C491.918 5.83123 489.424 3.70314 486.246 2.23287L484.567 5.86312ZM490.244 10.748C491.553 12.8209 492.239 15.2779 492.239 18.192H496.239C496.239 14.6208 495.388 11.4031 493.625 8.61201L490.244 10.748ZM492.239 18.192C492.239 21.1061 491.553 23.5631 490.244 25.636L493.625 27.772C495.388 24.9809 496.239 21.7632 496.239 18.192H492.239ZM490.23 25.6575C488.96 27.7252 487.095 29.3772 484.545 30.5953L486.268 34.2047C489.435 32.6921 491.922 30.5468 493.639 27.7505L490.23 25.6575ZM484.556 30.5897C482.066 31.7592 479.001 32.384 475.295 32.384V36.384C479.439 36.384 483.115 35.6861 486.257 34.2103L484.556 30.5897ZM475.295 32.384H454.303V36.384H475.295V32.384ZM456.303 34.384V24.592H452.303V34.384H456.303ZM454.303 26.592H474.655V22.592H454.303V26.592ZM474.655 26.592C477.27 26.592 479.592 25.9599 481.38 24.4604L478.809 21.3956C477.952 22.1147 476.647 22.592 474.655 22.592V26.592ZM481.408 24.4362C483.232 22.8478 484.079 20.6836 484.079 18.192H480.079C480.079 19.7111 479.603 20.7042 478.781 21.4198L481.408 24.4362ZM484.079 18.192C484.079 15.7017 483.231 13.5404 481.38 11.9876L478.809 15.0524C479.603 15.7183 480.079 16.6716 480.079 18.192H484.079ZM481.408 12.0118C479.62 10.4543 477.287 9.792 474.655 9.792V13.792C476.63 13.792 477.924 14.2817 478.781 15.0282L481.408 12.0118ZM474.655 9.792H455.391V13.792H474.655V9.792ZM456.829 13.1815L462.269 7.54948L459.392 4.77052L453.952 10.4025L456.829 13.1815ZM458.831 6.16V50H462.831V6.16H458.831ZM460.831 48H448.735V52H460.831V48ZM450.735 50V2H446.735V50H450.735ZM448.735 4H475.295V-3.8147e-06H448.735V4ZM500.235 50H498.235V52H500.235V50ZM500.235 2V-3.8147e-06H498.235V2H500.235ZM512.331 2H514.331V-3.8147e-06H512.331V2ZM512.331 45.84L510.925 47.2626L514.331 50.6283V45.84H512.331ZM506.891 40.464V38.464H502.021L505.485 41.8866L506.891 40.464ZM531.467 38.672L530.149 37.1668L530.138 37.1772L530.126 37.1878L531.467 38.672ZM531.467 28.88L530.126 30.3642L530.138 30.3748L530.149 30.3852L531.467 28.88ZM505.803 27.088H503.803V29.088H505.803V27.088ZM505.803 17.552V15.552H503.803V17.552H505.803ZM536.843 19.6L535.97 21.3996L535.986 21.4075L536.003 21.4151L536.843 19.6ZM543.435 42.32L541.744 41.252L541.744 41.252L543.435 42.32ZM536.843 48.016L537.693 49.8263L537.704 49.8207L536.843 48.016ZM550.027 2V-3.8147e-06H548.027V2H550.027ZM562.123 2H564.123V-3.8147e-06H562.123V2ZM562.123 50V52H564.123V50H562.123ZM550.027 50H548.027V52H550.027V50ZM502.235 50V2H498.235V50H502.235ZM500.235 4H512.331V-3.8147e-06H500.235V4ZM510.331 2V45.84H514.331V2H510.331ZM513.736 44.4174L508.296 39.0414L505.485 41.8866L510.925 47.2626L513.736 44.4174ZM506.891 42.464H525.963V38.464H506.891V42.464ZM525.963 42.464C528.644 42.464 531.013 41.7766 532.807 40.1562L530.126 37.1878C529.275 37.9568 527.974 38.464 525.963 38.464V42.464ZM532.784 40.1772C534.642 38.5514 535.515 36.3499 535.515 33.808H531.515C531.515 35.3621 531.022 36.4033 530.149 37.1668L532.784 40.1772ZM535.515 33.808C535.515 31.238 534.651 29.009 532.784 27.3748L530.149 30.3852C531.013 31.1403 531.515 32.1967 531.515 33.808H535.515ZM532.807 27.3958C531.013 25.7754 528.644 25.088 525.963 25.088V29.088C527.974 29.088 529.275 29.5952 530.126 30.3642L532.807 27.3958ZM525.963 25.088H505.803V29.088H525.963V25.088ZM507.803 27.088V17.552H503.803V27.088H507.803ZM505.803 19.552H526.667V15.552H505.803V19.552ZM526.667 19.552C530.411 19.552 533.489 20.1966 535.97 21.3996L537.715 17.8004C534.564 16.2727 530.858 15.552 526.667 15.552V19.552ZM536.003 21.4151C538.546 22.5919 540.433 24.2246 541.744 26.3L545.125 24.164C543.364 21.3754 540.856 19.2534 537.682 17.7849L536.003 21.4151ZM541.744 26.3C543.05 28.3688 543.739 30.8457 543.739 33.808H547.739C547.739 30.1997 546.891 26.9592 545.125 24.164L541.744 26.3ZM543.739 33.808C543.739 36.7221 543.053 39.1791 541.744 41.252L545.125 43.388C546.888 40.5969 547.739 37.3792 547.739 33.808H543.739ZM541.744 41.252C540.429 43.3333 538.535 44.9914 535.981 46.2113L537.704 49.8207C540.868 48.3099 543.368 46.1707 545.125 43.388L541.744 41.252ZM535.992 46.2057C533.505 47.374 530.419 48 526.667 48V52C530.85 52 534.548 51.3033 537.693 49.8263L535.992 46.2057ZM526.667 48H500.235V52H526.667V48ZM550.027 4H562.123V-3.8147e-06H550.027V4ZM560.123 2V50H564.123V2H560.123ZM562.123 48H550.027V52H562.123V48ZM552.027 50V2H548.027V50H552.027Z" fill="#A772FF"/>
</svg>
