<svg width="447" height="52" viewBox="0 0 447 52" fill="none" xmlns="http://www.w3.org/2000/svg">
<path d="M50.592 2H52.592V-3.8147e-06H50.592V2ZM50.592 50V52H52.592V50H50.592ZM38.56 50H36.56V52H38.56V50ZM38.56 7.248L39.9659 5.82554L36.56 2.45922V7.248H38.56ZM44.064 12.688V14.688H48.9326L45.4699 11.2655L44.064 12.688ZM7.328 12.688L5.91379 11.2738L2.49957 14.688H7.328V12.688ZM12.768 7.248H14.768V2.41957L11.3538 5.83378L12.768 7.248ZM12.768 50V52H14.768V50H12.768ZM0.672 50H-1.328V52H0.672V50ZM0.672 2V-3.8147e-06H-1.328V2H0.672ZM48.592 2V50H52.592V2H48.592ZM50.592 48H38.56V52H50.592V48ZM40.56 50V7.248H36.56V50H40.56ZM37.1541 8.67046L42.6581 14.1105L45.4699 11.2655L39.9659 5.82554L37.1541 8.67046ZM44.064 10.688H7.328V14.688H44.064V10.688ZM8.74221 14.1022L14.1822 8.66221L11.3538 5.83378L5.91379 11.2738L8.74221 14.1022ZM10.768 7.248V50H14.768V7.248H10.768ZM12.768 48H0.672V52H12.768V48ZM2.672 50V2H-1.328V50H2.672ZM0.672 4H50.592V-3.8147e-06H0.672V4ZM96.6565 4.048L95.784 5.84762L95.8002 5.85552L95.8167 5.86312L96.6565 4.048ZM103.185 9.68L101.48 10.7265L101.487 10.7373L101.494 10.748L103.185 9.68ZM103.185 26.704L101.494 25.636L101.487 25.6467L101.48 25.6575L103.185 26.704ZM96.6565 32.4L97.5068 34.2103L97.5185 34.2047L96.6565 32.4ZM65.5525 34.384H63.5525V36.384H65.5525V34.384ZM65.5525 24.592V22.592H63.5525V24.592H65.5525ZM91.3445 22.928L92.6297 24.4604L92.644 24.4484L92.6581 24.4362L91.3445 22.928ZM91.3445 13.52L90.0309 15.0282L90.045 15.0404L90.0593 15.0524L91.3445 13.52ZM66.6405 11.792L65.202 10.4025L61.928 13.792H66.6405V11.792ZM72.0805 6.16H74.0805V1.21063L70.642 4.77052L72.0805 6.16ZM72.0805 50V52H74.0805V50H72.0805ZM59.9845 50H57.9845V52H59.9845V50ZM59.9845 2V-3.8147e-06H57.9845V2H59.9845ZM86.5445 4C90.2424 4 93.3001 4.64332 95.784 5.84762L97.529 2.24837C94.3809 0.722002 90.6972 -3.8147e-06 86.5445 -3.8147e-06V4ZM95.8167 5.86312C98.3563 7.03819 100.214 8.66476 101.48 10.7265L104.889 8.63347C103.168 5.83123 100.674 3.70314 97.4963 2.23287L95.8167 5.86312ZM101.494 10.748C102.803 12.8209 103.489 15.2779 103.489 18.192H107.489C107.489 14.6208 106.638 11.4031 104.875 8.61201L101.494 10.748ZM103.489 18.192C103.489 21.1061 102.803 23.5631 101.494 25.636L104.875 27.772C106.638 24.9809 107.489 21.7632 107.489 18.192H103.489ZM101.48 25.6575C100.21 27.7252 98.3449 29.3772 95.7945 30.5953L97.5185 34.2047C100.685 32.6921 103.172 30.5468 104.889 27.7505L101.48 25.6575ZM95.8062 30.5897C93.3164 31.7592 90.2505 32.384 86.5445 32.384V36.384C90.6892 36.384 94.3646 35.6861 97.5068 34.2103L95.8062 30.5897ZM86.5445 32.384H65.5525V36.384H86.5445V32.384ZM67.5525 34.384V24.592H63.5525V34.384H67.5525ZM65.5525 26.592H85.9045V22.592H65.5525V26.592ZM85.9045 26.592C88.5202 26.592 90.8418 25.9599 92.6297 24.4604L90.0593 21.3956C89.2019 22.1147 87.8968 22.592 85.9045 22.592V26.592ZM92.6581 24.4362C94.4818 22.8478 95.3285 20.6836 95.3285 18.192H91.3285C91.3285 19.7111 90.8526 20.7042 90.0309 21.4198L92.6581 24.4362ZM95.3285 18.192C95.3285 15.7017 94.4811 13.5404 92.6297 11.9876L90.0593 15.0524C90.8532 15.7183 91.3285 16.6716 91.3285 18.192H95.3285ZM92.6581 12.0118C90.8698 10.4543 88.5373 9.792 85.9045 9.792V13.792C87.8797 13.792 89.1739 14.2817 90.0309 15.0282L92.6581 12.0118ZM85.9045 9.792H66.6405V13.792H85.9045V9.792ZM68.079 13.1815L73.519 7.54948L70.642 4.77052L65.202 10.4025L68.079 13.1815ZM70.0805 6.16V50H74.0805V6.16H70.0805ZM72.0805 48H59.9845V52H72.0805V48ZM61.9845 50V2H57.9845V50H61.9845ZM59.9845 4H86.5445V-3.8147e-06H59.9845V4ZM111.485 50H109.485V52H111.485V50ZM111.485 2V-3.8147e-06H109.485V2H111.485ZM123.389 2H125.389V-3.8147e-06H123.389V2ZM123.389 43.728L122.996 45.6892L125.389 46.1676V43.728H123.389ZM119.869 43.024L118.232 41.8748L116.47 44.3839L119.476 44.9852L119.869 43.024ZM148.669 2V-3.8147e-06H147.629L147.032 0.850845L148.669 2ZM164.413 2H166.413V-3.8147e-06H164.413V2ZM164.413 50V52H166.413V50H164.413ZM152.573 50H150.573V52H152.573V50ZM152.573 7.568L152.972 5.60824L150.573 5.11951V7.568H152.573ZM156.029 8.272L157.667 9.41825L159.414 6.92062L156.428 6.31225L156.029 8.272ZM126.845 50V52H127.886L128.483 51.1462L126.845 50ZM113.485 50V2H109.485V50H113.485ZM111.485 4H123.389V-3.8147e-06H111.485V4ZM121.389 2V43.728H125.389V2H121.389ZM123.781 41.7668L120.261 41.0628L119.476 44.9852L122.996 45.6892L123.781 41.7668ZM121.505 44.1732L150.305 3.14915L147.032 0.850845L118.232 41.8748L121.505 44.1732ZM148.669 4H164.413V-3.8147e-06H148.669V4ZM162.413 2V50H166.413V2H162.413ZM164.413 48H152.573V52H164.413V48ZM154.573 50V7.568H150.573V50H154.573ZM152.173 9.52775L155.629 10.2318L156.428 6.31225L152.972 5.60824L152.173 9.52775ZM154.39 7.12575L125.206 48.8538L128.483 51.1462L157.667 9.41825L154.39 7.12575ZM126.845 48H111.485V52H126.845V48ZM177.127 29.776L175.729 31.2071L175.729 31.2071L177.127 29.776ZM171.751 2V-3.8147e-06H169.751V2H171.751ZM183.847 2H185.847V-3.8147e-06H183.847V2ZM186.727 21.712L185.345 23.158L185.361 23.1737L185.378 23.189L186.727 21.712ZM202.535 23.632L202.947 25.5891L202.959 25.5864L202.972 25.5836L202.535 23.632ZM209.959 21.328L211.953 21.1827L211.755 18.464L209.221 19.4688L209.959 21.328ZM210.663 30.992L211.569 32.775L212.754 32.1726L212.657 30.8467L210.663 30.992ZM202.087 34L201.658 32.0464L201.653 32.0476L202.087 34ZM208.295 50H206.295V52H208.295V50ZM208.295 2V-3.8147e-06H206.295V2H208.295ZM220.391 2H222.391V-3.8147e-06H220.391V2ZM220.391 50V52H222.391V50H220.391ZM192.679 33.024C186.227 33.024 181.617 31.365 178.524 28.3449L175.729 31.2071C179.804 35.1843 185.562 37.024 192.679 37.024V33.024ZM178.524 28.3449C175.439 25.3341 173.751 20.8452 173.751 14.544H169.751C169.751 21.5548 171.646 27.2205 175.729 31.2071L178.524 28.3449ZM173.751 14.544V2H169.751V14.544H173.751ZM171.751 4H183.847V-3.8147e-06H171.751V4ZM181.847 2V13.584H185.847V2H181.847ZM181.847 13.584C181.847 17.5164 182.907 20.8282 185.345 23.158L188.108 20.266C186.706 18.9265 185.847 16.8196 185.847 13.584H181.847ZM185.378 23.189C187.848 25.4441 191.339 26.4 195.495 26.4V22.4C191.884 22.4 189.53 21.5639 188.075 20.235L185.378 23.189ZM195.495 26.4C197.907 26.4 200.392 26.1268 202.947 25.5891L202.122 21.6749C199.813 22.1612 197.605 22.4 195.495 22.4V26.4ZM202.972 25.5836C205.554 25.0049 208.129 24.2052 210.696 23.1872L209.221 19.4688C206.839 20.4135 204.465 21.1498 202.097 21.6804L202.972 25.5836ZM207.964 21.4733L208.668 31.1373L212.657 30.8467L211.953 21.1827L207.964 21.4733ZM209.756 29.209C207.318 30.448 204.622 31.3968 201.658 32.0464L202.515 35.9536C205.78 35.2379 208.801 34.1813 211.569 32.775L209.756 29.209ZM201.653 32.0476C198.725 32.6981 195.735 33.024 192.679 33.024V37.024C196.022 37.024 199.304 36.6672 202.52 35.9524L201.653 32.0476ZM210.295 50V2H206.295V50H210.295ZM208.295 4H220.391V-3.8147e-06H208.295V4ZM218.391 2V50H222.391V2H218.391ZM220.391 48H208.295V52H220.391V48ZM270.119 21.52H272.119V19.52H270.119V21.52ZM270.119 30.48V32.48H272.119V30.48H270.119ZM235.367 30.48H233.367V32.48H235.367V30.48ZM235.367 21.52V19.52H233.367V21.52H235.367ZM243.559 26L245.533 26.3185L245.584 26L245.533 25.6815L243.559 26ZM240.359 45.84L238.863 47.1677L241.662 50.3208L242.333 46.1585L240.359 45.84ZM235.303 40.144V38.144H230.853L233.807 41.4717L235.303 40.144ZM272.167 40.144H274.167V38.144H272.167V40.144ZM272.167 50V52H274.167V50H272.167ZM228.263 50L226.286 49.6943L225.929 52H228.263V50ZM231.975 26L233.951 26.3057L233.998 26L233.951 25.6943L231.975 26ZM228.263 2V-3.8147e-06H225.929L226.286 2.30569L228.263 2ZM271.847 2H273.847V-3.8147e-06H271.847V2ZM271.847 11.856V13.856H273.847V11.856H271.847ZM235.303 11.856L233.807 10.5283L230.853 13.856H235.303V11.856ZM240.359 6.16L242.333 5.84153L241.662 1.67915L238.863 4.83231L240.359 6.16ZM268.119 21.52V30.48H272.119V21.52H268.119ZM270.119 28.48H235.367V32.48H270.119V28.48ZM237.367 30.48V21.52H233.367V30.48H237.367ZM235.367 23.52H270.119V19.52H235.367V23.52ZM241.584 25.6815L238.384 45.5215L242.333 46.1585L245.533 26.3185L241.584 25.6815ZM241.854 44.5123L236.798 38.8163L233.807 41.4717L238.863 47.1677L241.854 44.5123ZM235.303 42.144H272.167V38.144H235.303V42.144ZM270.167 40.144V50H274.167V40.144H270.167ZM272.167 48H228.263V52H272.167V48ZM230.239 50.3057L233.951 26.3057L229.998 25.6943L226.286 49.6943L230.239 50.3057ZM233.951 25.6943L230.239 1.6943L226.286 2.30569L229.998 26.3057L233.951 25.6943ZM228.263 4H271.847V-3.8147e-06H228.263V4ZM269.847 2V11.856H273.847V2H269.847ZM271.847 9.856H235.303V13.856H271.847V9.856ZM236.798 13.1837L241.854 7.48768L238.863 4.83231L233.807 10.5283L236.798 13.1837ZM238.384 6.47846L241.584 26.3185L245.533 25.6815L242.333 5.84153L238.384 6.47846ZM332.032 30.16L334.019 30.3854L334.271 28.16H332.032V30.16ZM327.744 41.104L329.33 42.3213L329.338 42.3109L327.744 41.104ZM318.272 48.4L317.457 46.5732L318.272 48.4ZM290.304 47.888L289.402 49.6732L289.409 49.6769L290.304 47.888ZM280.64 39.12L278.935 40.166L278.935 40.166L280.64 39.12ZM280.64 12.88L278.935 11.834L278.935 11.834L280.64 12.88ZM290.304 4.112L289.409 2.32313L289.402 2.32684L290.304 4.112ZM327.744 10.896L326.157 12.1133L326.157 12.1133L327.744 10.896ZM332.032 21.84V23.84H334.269L334.019 21.6169L332.032 21.84ZM319.872 21.84L317.909 22.2248L318.226 23.84H319.872V21.84ZM317.248 16.272L315.711 17.5524L315.721 17.5648L315.732 17.577L317.248 16.272ZM312.128 12.752L311.372 14.6037L311.394 14.6129L311.417 14.6216L312.128 12.752ZM296.576 13.264L297.47 15.0529L297.483 15.0463L297.496 15.0395L296.576 13.264ZM291.264 18.256L293.002 19.2446L293.002 19.2446L291.264 18.256ZM291.264 33.744L289.525 34.7326L289.525 34.7326L291.264 33.744ZM296.576 38.8L295.655 40.5755L295.668 40.5823L295.681 40.5889L296.576 38.8ZM312.128 39.312L311.417 37.4424L311.404 37.4473L312.128 39.312ZM317.248 35.792L315.732 34.487L315.721 34.4992L315.711 34.5116L317.248 35.792ZM319.872 30.16V28.16H318.219L317.907 29.7823L319.872 30.16ZM330.044 29.9346C329.613 33.7362 328.31 37.0409 326.149 39.8971L329.338 42.3109C331.956 38.8524 333.511 34.8612 334.019 30.3854L330.044 29.9346ZM326.157 39.8867C323.989 42.7125 321.108 44.9463 317.457 46.5732L319.086 50.2268C323.286 48.355 326.719 45.7248 329.33 42.3213L326.157 39.8867ZM317.457 46.5732C313.828 48.1904 309.633 49.024 304.832 49.024V53.024C310.099 53.024 314.864 52.1082 319.086 50.2268L317.457 46.5732ZM304.832 49.024C299.583 49.024 295.056 48.0284 291.198 46.0991L289.409 49.6769C293.913 51.929 299.072 53.024 304.832 53.024V49.024ZM291.205 46.1028C287.379 44.1702 284.444 41.4957 282.344 38.074L278.935 40.166C281.443 44.2537 284.95 47.4245 289.402 49.6732L291.205 46.1028ZM282.344 38.074C280.258 34.6744 279.184 30.6731 279.184 26H275.184C275.184 31.3109 276.413 36.0563 278.935 40.166L282.344 38.074ZM279.184 26C279.184 21.3269 280.258 17.3256 282.344 13.926L278.935 11.834C276.413 15.9437 275.184 20.6891 275.184 26H279.184ZM282.344 13.926C284.444 10.5043 287.379 7.82983 291.205 5.89716L289.402 2.32684C284.95 4.5755 281.443 7.74633 278.935 11.834L282.344 13.926ZM291.198 5.90085C295.056 3.97164 299.583 2.976 304.832 2.976V-1.024C299.072 -1.024 293.913 0.0710234 289.409 2.32315L291.198 5.90085ZM304.832 2.976C309.633 2.976 313.828 3.80957 317.457 5.4268L319.086 1.7732C314.864 -0.108236 310.099 -1.024 304.832 -1.024V2.976ZM317.457 5.4268C321.108 7.05366 323.989 9.2875 326.157 12.1133L329.33 9.67868C326.719 6.27516 323.286 3.645 319.086 1.7732L317.457 5.4268ZM326.157 12.1133C328.308 14.9184 329.612 18.2165 330.044 22.0631L334.019 21.6169C333.512 17.1009 331.957 13.1029 329.33 9.67868L326.157 12.1133ZM332.032 19.84H319.872V23.84H332.032V19.84ZM321.834 21.4552C321.347 18.9717 320.333 16.79 318.763 14.967L315.732 17.577C316.807 18.826 317.542 20.3563 317.909 22.2248L321.834 21.4552ZM318.784 14.9916C317.254 13.156 315.247 11.7977 312.838 10.8824L311.417 14.6216C313.275 15.3276 314.681 16.316 315.711 17.5524L318.784 14.9916ZM312.883 10.9003C310.505 9.92946 307.807 9.472 304.832 9.472V13.472C307.403 13.472 309.569 13.8679 311.372 14.6037L312.883 10.9003ZM304.832 9.472C301.385 9.472 298.302 10.1159 295.655 11.4885L297.496 15.0395C299.457 14.0228 301.878 13.472 304.832 13.472V9.472ZM295.681 11.4751C293.034 12.7989 290.964 14.7364 289.525 17.2674L293.002 19.2446C294.038 17.4236 295.509 16.0331 297.47 15.0529L295.681 11.4751ZM289.525 17.2674C288.086 19.7981 287.408 22.7338 287.408 26H291.408C291.408 23.2929 291.966 21.0659 293.002 19.2446L289.525 17.2674ZM287.408 26C287.408 29.2662 288.086 32.2019 289.525 34.7326L293.002 32.7554C291.966 30.9341 291.408 28.7071 291.408 26H287.408ZM289.525 34.7326C290.96 37.2572 293.021 39.2099 295.655 40.5755L297.496 37.0245C295.522 36.0007 294.041 34.5828 293.002 32.7554L289.525 34.7326ZM295.681 40.5889C298.322 41.9093 301.395 42.528 304.832 42.528V38.528C301.868 38.528 299.437 37.9947 297.47 37.0111L295.681 40.5889ZM304.832 42.528C307.796 42.528 310.482 42.0952 312.851 41.1767L311.404 37.4473C309.592 38.1501 307.414 38.528 304.832 38.528V42.528ZM312.838 41.1816C315.247 40.2663 317.254 38.908 318.784 37.0724L315.711 34.5116C314.681 35.748 313.275 36.7364 311.417 37.4424L312.838 41.1816ZM318.763 37.097C320.339 35.267 321.351 33.0591 321.836 30.5377L317.907 29.7823C317.539 31.6982 316.801 33.245 315.732 34.487L318.763 37.097ZM319.872 32.16H332.032V28.16H319.872V32.16ZM338.797 50H336.797V52H338.797V50ZM338.797 2V-3.8147e-06H336.797V2H338.797ZM350.829 2H352.829V-3.8147e-06H350.829V2ZM350.829 40.336L349.614 41.9247L352.829 44.3832V40.336H350.829ZM347.565 37.84L345.998 36.5974L344.733 38.1923L346.35 39.4287L347.565 37.84ZM375.981 2V-3.8147e-06H375.014L374.414 0.757444L375.981 2ZM388.781 2L390.332 3.2632L392.99 -3.8147e-06H388.781V2ZM349.677 50V52H350.627L351.228 51.2632L349.677 50ZM361.773 26.768L360.469 25.2518L359.19 26.3518L360.058 27.7977L361.773 26.768ZM370.477 19.28L372.179 18.2302L370.949 16.2355L369.173 17.7638L370.477 19.28ZM389.421 50V52H393.004L391.123 48.9502L389.421 50ZM375.725 50L374.01 51.0297L374.593 52H375.725V50ZM340.797 50V2H336.797V50H340.797ZM338.797 4H350.829V-3.8147e-06H338.797V4ZM348.829 2V40.336H352.829V2H348.829ZM352.044 38.7473L348.78 36.2513L346.35 39.4287L349.614 41.9247L352.044 38.7473ZM349.132 39.0826L377.548 3.24255L374.414 0.757444L345.998 36.5974L349.132 39.0826ZM375.981 4H388.781V-3.8147e-06H375.981V4ZM387.23 0.736788L348.126 48.7368L351.228 51.2632L390.332 3.2632L387.23 0.736788ZM349.677 48H338.797V52H349.677V48ZM363.077 28.2841L371.781 20.7961L369.173 17.7638L360.469 25.2518L363.077 28.2841ZM368.775 20.3298L387.719 51.0498L391.123 48.9502L372.179 18.2302L368.775 20.3298ZM389.421 48H375.725V52H389.421V48ZM377.44 48.9703L363.488 25.7383L360.058 27.7977L374.01 51.0297L377.44 48.9703ZM393.86 50H391.86V52H393.86V50ZM393.86 2V-3.8147e-06H391.86V2H393.86ZM405.764 2H407.764V-3.8147e-06H405.764V2ZM405.764 43.728L405.371 45.6892L407.764 46.1676V43.728H405.764ZM402.244 43.024L400.607 41.8748L398.845 44.3839L401.851 44.9852L402.244 43.024ZM431.044 2V-3.8147e-06H430.004L429.407 0.850845L431.044 2ZM446.788 2H448.788V-3.8147e-06H446.788V2ZM446.788 50V52H448.788V50H446.788ZM434.948 50H432.948V52H434.948V50ZM434.948 7.568L435.347 5.60824L432.948 5.11951V7.568H434.948ZM438.404 8.272L440.042 9.41825L441.789 6.92062L438.803 6.31225L438.404 8.272ZM409.22 50V52H410.261L410.858 51.1462L409.22 50ZM395.86 50V2H391.86V50H395.86ZM393.86 4H405.764V-3.8147e-06H393.86V4ZM403.764 2V43.728H407.764V2H403.764ZM406.156 41.7668L402.636 41.0628L401.851 44.9852L405.371 45.6892L406.156 41.7668ZM403.88 44.1732L432.68 3.14915L429.407 0.850845L400.607 41.8748L403.88 44.1732ZM431.044 4H446.788V-3.8147e-06H431.044V4ZM444.788 2V50H448.788V2H444.788ZM446.788 48H434.948V52H446.788V48ZM436.948 50V7.568H432.948V50H436.948ZM434.548 9.52775L438.004 10.2318L438.803 6.31225L435.347 5.60824L434.548 9.52775ZM436.765 7.12575L407.581 48.8538L410.858 51.1462L440.042 9.41825L436.765 7.12575ZM409.22 48H393.86V52H409.22V48Z" fill="#A772FF"/>
</svg>
