<svg width="392" height="60" viewBox="0 0 392 60" fill="none" xmlns="http://www.w3.org/2000/svg">
<path d="M13.872 47.888L12.9848 49.6805L12.992 49.684L13.872 47.888ZM4.016 39.12L2.32 40.18L2.32 40.18L4.016 39.12ZM4.016 12.88L2.32 11.82L2.32 11.82L4.016 12.88ZM13.872 4.112L12.992 2.316L12.9848 2.31954L13.872 4.112ZM43.504 4.112L42.6168 5.90447L42.624 5.90798L43.504 4.112ZM53.424 12.88L51.728 13.94L51.7323 13.9469L51.7367 13.9537L53.424 12.88ZM53.424 39.12L51.7367 38.0462L51.7323 38.0531L51.728 38.06L53.424 39.12ZM43.504 47.888L42.624 46.092L42.6168 46.0955L43.504 47.888ZM37.296 38.544L38.1382 40.358L38.1515 40.3519L38.1646 40.3455L37.296 38.544ZM42.8 33.616L41.1002 32.5621L41.0925 32.5745L41.085 32.587L42.8 33.616ZM42.8 18.384L41.085 19.413L41.0925 19.4255L41.1002 19.4379L42.8 18.384ZM37.296 13.52L36.4274 15.3215L36.4405 15.3279L36.4538 15.334L37.296 13.52ZM20.208 13.52L21.0502 15.334L21.0635 15.3279L21.0766 15.3215L20.208 13.52ZM14.64 18.384L16.3398 19.4379L16.3398 19.4379L14.64 18.384ZM14.64 33.616L16.3398 32.5621L16.3398 32.5621L14.64 33.616ZM20.208 38.544L19.3394 40.3455L19.3525 40.3519L19.3658 40.358L20.208 38.544ZM28.72 49.024C23.337 49.024 18.6985 48.0258 14.752 46.092L12.992 49.684C17.5789 51.9316 22.839 53.024 28.72 53.024V49.024ZM14.7592 46.0955C10.8451 44.1583 7.84936 41.4798 5.712 38.06L2.32 40.18C4.87597 44.2696 8.45087 47.4364 12.9848 49.6805L14.7592 46.0955ZM5.712 38.06C3.5885 34.6624 2.496 30.6662 2.496 26H-1.504C-1.504 31.3178 -0.249829 36.0683 2.32 40.18L5.712 38.06ZM2.496 26C2.496 21.3338 3.5885 17.3376 5.712 13.94L2.32 11.82C-0.249829 15.9317 -1.504 20.6822 -1.504 26H2.496ZM5.712 13.94C7.84936 10.5202 10.8451 7.84172 14.7592 5.90446L12.9848 2.31954C8.45087 4.56361 4.87598 7.73045 2.32 11.82L5.712 13.94ZM14.752 5.90798C18.6985 3.97422 23.337 2.976 28.72 2.976V-1.024C22.839 -1.024 17.5789 0.0684436 12.992 2.31602L14.752 5.90798ZM28.72 2.976C34.1037 2.976 38.7174 3.97443 42.6168 5.90446L44.3912 2.31954C39.8426 0.0682368 34.6003 -1.024 28.72 -1.024V2.976ZM42.624 5.90798C46.5808 7.84682 49.5938 10.5253 51.728 13.94L55.12 11.82C52.5608 7.72536 48.9605 4.5585 44.384 2.31602L42.624 5.90798ZM51.7367 13.9537C53.8976 17.3495 55.008 21.3407 55.008 26H59.008C59.008 20.6753 57.7291 15.9198 55.1113 11.8062L51.7367 13.9537ZM55.008 26C55.008 30.6593 53.8976 34.6505 51.7367 38.0462L55.1113 40.1938C57.7291 36.0802 59.008 31.3247 59.008 26H55.008ZM51.728 38.06C49.5938 41.4747 46.5808 44.1532 42.624 46.092L44.384 49.684C48.9605 47.4415 52.5608 44.2746 55.12 40.18L51.728 38.06ZM42.6168 46.0955C38.7174 48.0256 34.1037 49.024 28.72 49.024V53.024C34.6003 53.024 39.8426 51.9318 44.3912 49.6805L42.6168 46.0955ZM28.72 42.208C32.2647 42.208 35.4251 41.6177 38.1382 40.358L36.4538 36.73C34.3882 37.689 31.8313 38.208 28.72 38.208V42.208ZM38.1646 40.3455C40.881 39.0359 43.0208 37.1354 44.515 34.645L41.085 32.587C40.0192 34.3633 38.4897 35.7481 36.4274 36.7425L38.1646 40.3455ZM44.4998 34.6699C46.0505 32.1688 46.784 29.2511 46.784 26H42.784C42.784 28.6369 42.1949 30.7965 41.1002 32.5621L44.4998 34.6699ZM46.784 26C46.784 22.7489 46.0505 19.8312 44.4998 17.3301L41.1002 19.4379C42.1949 21.2034 42.784 23.3631 42.784 26H46.784ZM44.515 17.355C43.0167 14.8579 40.8679 12.9733 38.1382 11.706L36.4538 15.334C38.5027 16.2853 40.0233 17.6434 41.085 19.413L44.515 17.355ZM38.1646 11.7185C35.4444 10.4069 32.2742 9.792 28.72 9.792V13.792C31.8218 13.792 34.369 14.3291 36.4274 15.3215L38.1646 11.7185ZM28.72 9.792C25.204 9.792 22.0564 10.4085 19.3394 11.7185L21.0766 15.3215C23.1382 14.3275 25.6653 13.792 28.72 13.792V9.792ZM19.3658 11.706C16.641 12.9711 14.4789 14.8483 12.9402 17.3301L16.3398 19.4379C17.4464 17.653 18.9963 16.2876 21.0502 15.334L19.3658 11.706ZM12.9402 17.3301C11.3895 19.8312 10.656 22.7489 10.656 26H14.656C14.656 23.3631 15.2452 21.2034 16.3398 19.4379L12.9402 17.3301ZM10.656 26C10.656 29.2511 11.3895 32.1688 12.9402 34.6699L16.3398 32.5621C15.2452 30.7965 14.656 28.6369 14.656 26H10.656ZM12.9402 34.6699C14.4748 37.1451 16.6279 39.0382 19.3394 40.3455L21.0766 36.7425C19.0094 35.7458 17.4505 34.3536 16.3398 32.5621L12.9402 34.6699ZM19.3658 40.358C22.0758 41.6162 25.2137 42.208 28.72 42.208V38.208C25.6556 38.208 23.1189 37.6904 21.0502 36.73L19.3658 40.358ZM58.902 59.728H56.902V61.728H58.902V59.728ZM58.902 39.376V37.376H56.902V39.376H58.902ZM68.502 39.376L68.5599 37.3768L68.531 37.376H68.502V39.376ZM72.918 39.504L72.8601 41.5032L72.889 41.504H72.918V39.504ZM106.902 39.504V41.504H106.945L106.989 41.5021L106.902 39.504ZM109.846 39.376V37.376H109.803L109.759 37.3779L109.846 39.376ZM123.286 39.376H125.286V37.376H123.286V39.376ZM123.286 59.728V61.728H125.286V59.728H123.286ZM112.022 59.728H110.022V61.728H112.022V59.728ZM112.022 50H114.022V48H112.022V50ZM70.166 50V48H68.166V50H70.166ZM70.166 59.728V61.728H72.166V59.728H70.166ZM69.014 2V-3.8147e-06H66.7871L67.0255 2.21414L69.014 2ZM114.966 2H116.966V-3.8147e-06H114.966V2ZM114.966 46.416V48.416H116.966V46.416H114.966ZM102.87 46.416H100.87V48.416H102.87V46.416ZM102.87 7.056L104.292 5.65008L100.87 2.18736V7.056H102.87ZM108.31 12.56V14.56H113.099L109.732 11.1541L108.31 12.56ZM75.478 12.56L74.2213 11.0041L69.8188 14.56H75.478V12.56ZM80.47 8.528L82.4499 8.24516L81.952 4.76009L79.2133 6.97212L80.47 8.528ZM80.982 14.608L78.9825 14.6515L78.983 14.6741L78.984 14.6968L80.982 14.608ZM79.83 33.04L77.887 32.5661L77.8842 32.5773L77.8816 32.5885L79.83 33.04ZM76.054 41.04L74.5896 39.6778L74.5884 39.6791L76.054 41.04ZM69.846 43.728L68.5753 45.2724L69.129 45.728H69.846V43.728ZM64.79 39.568L63.2693 38.269L61.9461 39.8181L63.5193 41.1124L64.79 39.568ZM68.694 31.12L70.6396 31.5832L70.6408 31.5781L68.694 31.12ZM69.718 10.128L67.7221 10.2568L67.7223 10.2589L69.718 10.128ZM60.902 59.728V39.376H56.902V59.728H60.902ZM58.902 41.376H68.502V37.376H58.902V41.376ZM68.4441 41.3752L72.8601 41.5032L72.9759 37.5048L68.5599 37.3768L68.4441 41.3752ZM72.918 41.504H106.902V37.504H72.918V41.504ZM106.989 41.5021L109.933 41.3741L109.759 37.3779L106.815 37.5059L106.989 41.5021ZM109.846 41.376H123.286V37.376H109.846V41.376ZM121.286 39.376V59.728H125.286V39.376H121.286ZM123.286 57.728H112.022V61.728H123.286V57.728ZM114.022 59.728V50H110.022V59.728H114.022ZM112.022 48H70.166V52H112.022V48ZM68.166 50V59.728H72.166V50H68.166ZM70.166 57.728H58.902V61.728H70.166V57.728ZM69.014 4H114.966V-3.8147e-06H69.014V4ZM112.966 2V46.416H116.966V2H112.966ZM114.966 44.416H102.87V48.416H114.966V44.416ZM104.87 46.416V7.056H100.87V46.416H104.87ZM101.448 8.46192L106.888 13.9659L109.732 11.1541L104.292 5.65008L101.448 8.46192ZM108.31 10.56H75.478V14.56H108.31V10.56ZM76.7347 14.1159L81.7267 10.0839L79.2133 6.97212L74.2213 11.0041L76.7347 14.1159ZM78.4901 8.81084C78.7783 10.8281 78.9417 12.7747 78.9825 14.6515L82.9815 14.5645C82.937 12.516 82.7591 10.4092 82.4499 8.24516L78.4901 8.81084ZM78.984 14.6968C79.0681 16.5901 79.11 18.395 79.11 20.112H83.11C83.11 18.3303 83.0665 16.4659 82.98 14.5192L78.984 14.6968ZM79.11 20.112C79.11 25.1334 78.6903 29.2724 77.887 32.5661L81.773 33.5139C82.6764 29.8103 83.11 25.3306 83.11 20.112H79.11ZM77.8816 32.5885C77.1177 35.8855 75.9768 38.1866 74.5896 39.6778L77.5184 42.4022C79.5445 40.2241 80.921 37.1918 81.7784 33.4915L77.8816 32.5885ZM74.5884 39.6791C73.308 41.0581 71.7721 41.728 69.846 41.728V45.728C72.8692 45.728 75.472 44.6059 77.5196 42.4009L74.5884 39.6791ZM71.1167 42.1836L66.0607 38.0236L63.5193 41.1124L68.5753 45.2724L71.1167 42.1836ZM66.3107 40.867C68.3274 38.506 69.7385 35.3679 70.6396 31.5832L66.7484 30.6568C65.9428 34.0401 64.7512 36.534 63.2693 38.269L66.3107 40.867ZM70.6408 31.5781C71.541 27.7522 71.974 23.1074 71.974 17.68H67.974C67.974 22.9193 67.5536 27.2344 66.7472 30.6619L70.6408 31.5781ZM71.974 17.68C71.974 15.2013 71.887 12.6403 71.7137 9.99713L67.7223 10.2589C67.8903 12.8211 67.974 15.2947 67.974 17.68H71.974ZM71.7139 9.99923C71.5413 7.32396 71.3041 4.58612 71.0025 1.78585L67.0255 2.21414C67.3213 4.96054 67.5534 7.64137 67.7221 10.2568L71.7139 9.99923ZM170.119 21.52H172.119V19.52H170.119V21.52ZM170.119 30.48V32.48H172.119V30.48H170.119ZM135.367 30.48H133.367V32.48H135.367V30.48ZM135.367 21.52V19.52H133.367V21.52H135.367ZM143.559 26L145.533 26.3185L145.584 26L145.533 25.6815L143.559 26ZM140.359 45.84L138.863 47.1677L141.662 50.3208L142.333 46.1585L140.359 45.84ZM135.303 40.144V38.144H130.853L133.807 41.4717L135.303 40.144ZM172.167 40.144H174.167V38.144H172.167V40.144ZM172.167 50V52H174.167V50H172.167ZM128.263 50L126.286 49.6943L125.929 52H128.263V50ZM131.975 26L133.951 26.3057L133.998 26L133.951 25.6943L131.975 26ZM128.263 2V-3.8147e-06H125.929L126.286 2.30569L128.263 2ZM171.847 2H173.847V-3.8147e-06H171.847V2ZM171.847 11.856V13.856H173.847V11.856H171.847ZM135.303 11.856L133.807 10.5283L130.853 13.856H135.303V11.856ZM140.359 6.16L142.333 5.84153L141.662 1.67915L138.863 4.83231L140.359 6.16ZM168.119 21.52V30.48H172.119V21.52H168.119ZM170.119 28.48H135.367V32.48H170.119V28.48ZM137.367 30.48V21.52H133.367V30.48H137.367ZM135.367 23.52H170.119V19.52H135.367V23.52ZM141.584 25.6815L138.384 45.5215L142.333 46.1585L145.533 26.3185L141.584 25.6815ZM141.854 44.5123L136.798 38.8163L133.807 41.4717L138.863 47.1677L141.854 44.5123ZM135.303 42.144H172.167V38.144H135.303V42.144ZM170.167 40.144V50H174.167V40.144H170.167ZM172.167 48H128.263V52H172.167V48ZM130.239 50.3057L133.951 26.3057L129.998 25.6943L126.286 49.6943L130.239 50.3057ZM133.951 25.6943L130.239 1.6943L126.286 2.30569L129.998 26.3057L133.951 25.6943ZM128.263 4H171.847V-3.8147e-06H128.263V4ZM169.847 2V11.856H173.847V2H169.847ZM171.847 9.856H135.303V13.856H171.847V9.856ZM136.798 13.1837L141.854 7.48768L138.863 4.83231L133.807 10.5283L136.798 13.1837ZM138.384 6.47846L141.584 26.3185L145.533 25.6815L142.333 5.84153L138.384 6.47846ZM175.438 50L173.737 48.9477L171.848 52H175.438V50ZM194.446 19.28L195.75 17.7638L193.976 16.2378L192.745 18.2277L194.446 19.28ZM203.15 26.768L204.862 27.8012L205.735 26.3541L204.454 25.2518L203.15 26.768ZM189.134 50V52H190.263L190.846 51.0332L189.134 50ZM250.638 50L248.923 51.0297L249.506 52H250.638V50ZM236.686 26.768L235.381 25.2518L234.103 26.3518L234.971 27.7977L236.686 26.768ZM245.39 19.28L247.09 18.2277L245.859 16.2378L244.085 17.7638L245.39 19.28ZM264.398 50V52H267.987L266.098 48.9477L264.398 50ZM225.87 38.928L225.195 40.8107L227.87 41.7696V38.928H225.87ZM222.478 37.712L220.912 36.4667L219.174 38.6522L221.803 39.5947L222.478 37.712ZM250.894 2V-3.8147e-06H249.929L249.328 0.754715L250.894 2ZM263.694 2L265.24 3.26816L267.92 -3.8147e-06H263.694V2ZM224.334 50V52H225.28L225.88 51.2682L224.334 50ZM215.502 50L213.955 51.2682L214.555 52H215.502V50ZM176.142 2V-3.8147e-06H171.915L174.595 3.26816L176.142 2ZM188.942 2L190.508 0.756434L189.907 -3.8147e-06H188.942V2ZM217.294 37.712L217.98 39.5905L220.583 38.6393L218.86 36.4684L217.294 37.712ZM213.966 38.928H211.966V41.7881L214.652 40.8065L213.966 38.928ZM213.966 2V-3.8147e-06H211.966V2H213.966ZM225.87 2H227.87V-3.8147e-06H225.87V2ZM177.138 51.0523L196.146 20.3323L192.745 18.2277L173.737 48.9477L177.138 51.0523ZM193.141 20.7961L201.845 28.2841L204.454 25.2518L195.75 17.7638L193.141 20.7961ZM201.437 25.7348L187.421 48.9668L190.846 51.0332L204.862 27.8012L201.437 25.7348ZM189.134 48H175.438V52H189.134V48ZM252.352 48.9703L238.4 25.7383L234.971 27.7977L248.923 51.0297L252.352 48.9703ZM237.99 28.2841L246.694 20.7961L244.085 17.7638L235.381 25.2518L237.99 28.2841ZM243.689 20.3323L262.697 51.0523L266.098 48.9477L247.09 18.2277L243.689 20.3323ZM264.398 48H250.638V52H264.398V48ZM226.544 37.0453L223.152 35.8293L221.803 39.5947L225.195 40.8107L226.544 37.0453ZM224.043 38.9573L252.459 3.24528L249.328 0.754715L220.912 36.4667L224.043 38.9573ZM250.894 4H263.694V-3.8147e-06H250.894V4ZM262.147 0.731837L222.787 48.7318L225.88 51.2682L265.24 3.26816L262.147 0.731837ZM224.334 48H215.502V52H224.334V48ZM217.048 48.7318L177.688 0.731837L174.595 3.26816L213.955 51.2682L217.048 48.7318ZM176.142 4H188.942V-3.8147e-06H176.142V4ZM187.375 3.24356L215.727 38.9556L218.86 36.4684L190.508 0.756434L187.375 3.24356ZM216.607 35.8335L213.279 37.0495L214.652 40.8065L217.98 39.5905L216.607 35.8335ZM215.966 38.928V2H211.966V38.928H215.966ZM213.966 4H225.87V-3.8147e-06H213.966V4ZM223.87 2V38.928H227.87V2H223.87ZM265.527 59.728H263.527V61.728H265.527V59.728ZM265.527 39.376V37.376H263.527V39.376H265.527ZM275.127 39.376L275.185 37.3768L275.156 37.376H275.127V39.376ZM279.543 39.504L279.485 41.5032L279.514 41.504H279.543V39.504ZM313.527 39.504V41.504H313.57L313.614 41.5021L313.527 39.504ZM316.471 39.376V37.376H316.428L316.384 37.3779L316.471 39.376ZM329.911 39.376H331.911V37.376H329.911V39.376ZM329.911 59.728V61.728H331.911V59.728H329.911ZM318.647 59.728H316.647V61.728H318.647V59.728ZM318.647 50H320.647V48H318.647V50ZM276.791 50V48H274.791V50H276.791ZM276.791 59.728V61.728H278.791V59.728H276.791ZM275.639 2V-3.8147e-06H273.412L273.65 2.21414L275.639 2ZM321.591 2H323.591V-3.8147e-06H321.591V2ZM321.591 46.416V48.416H323.591V46.416H321.591ZM309.495 46.416H307.495V48.416H309.495V46.416ZM309.495 7.056L310.917 5.65008L307.495 2.18736V7.056H309.495ZM314.935 12.56V14.56H319.724L316.357 11.1541L314.935 12.56ZM282.103 12.56L280.846 11.0041L276.444 14.56H282.103V12.56ZM287.095 8.528L289.075 8.24516L288.577 4.76009L285.838 6.97212L287.095 8.528ZM287.607 14.608L285.607 14.6515L285.608 14.6741L285.609 14.6968L287.607 14.608ZM286.455 33.04L284.512 32.5661L284.509 32.5773L284.507 32.5885L286.455 33.04ZM282.679 41.04L281.215 39.6778L281.213 39.6791L282.679 41.04ZM276.471 43.728L275.2 45.2724L275.754 45.728H276.471V43.728ZM271.415 39.568L269.894 38.269L268.571 39.8181L270.144 41.1124L271.415 39.568ZM275.319 31.12L277.265 31.5832L277.266 31.5781L275.319 31.12ZM276.343 10.128L274.347 10.2568L274.347 10.2589L276.343 10.128ZM267.527 59.728V39.376H263.527V59.728H267.527ZM265.527 41.376H275.127V37.376H265.527V41.376ZM275.069 41.3752L279.485 41.5032L279.601 37.5048L275.185 37.3768L275.069 41.3752ZM279.543 41.504H313.527V37.504H279.543V41.504ZM313.614 41.5021L316.558 41.3741L316.384 37.3779L313.44 37.5059L313.614 41.5021ZM316.471 41.376H329.911V37.376H316.471V41.376ZM327.911 39.376V59.728H331.911V39.376H327.911ZM329.911 57.728H318.647V61.728H329.911V57.728ZM320.647 59.728V50H316.647V59.728H320.647ZM318.647 48H276.791V52H318.647V48ZM274.791 50V59.728H278.791V50H274.791ZM276.791 57.728H265.527V61.728H276.791V57.728ZM275.639 4H321.591V-3.8147e-06H275.639V4ZM319.591 2V46.416H323.591V2H319.591ZM321.591 44.416H309.495V48.416H321.591V44.416ZM311.495 46.416V7.056H307.495V46.416H311.495ZM308.073 8.46192L313.513 13.9659L316.357 11.1541L310.917 5.65008L308.073 8.46192ZM314.935 10.56H282.103V14.56H314.935V10.56ZM283.36 14.1159L288.352 10.0839L285.838 6.97212L280.846 11.0041L283.36 14.1159ZM285.115 8.81084C285.403 10.8281 285.567 12.7747 285.607 14.6515L289.607 14.5645C289.562 12.516 289.384 10.4092 289.075 8.24516L285.115 8.81084ZM285.609 14.6968C285.693 16.5901 285.735 18.395 285.735 20.112H289.735C289.735 18.3303 289.692 16.4659 289.605 14.5192L285.609 14.6968ZM285.735 20.112C285.735 25.1334 285.315 29.2724 284.512 32.5661L288.398 33.5139C289.301 29.8103 289.735 25.3306 289.735 20.112H285.735ZM284.507 32.5885C283.743 35.8855 282.602 38.1866 281.215 39.6778L284.143 42.4022C286.17 40.2241 287.546 37.1918 288.403 33.4915L284.507 32.5885ZM281.213 39.6791C279.933 41.0581 278.397 41.728 276.471 41.728V45.728C279.494 45.728 282.097 44.6059 284.145 42.4009L281.213 39.6791ZM277.742 42.1836L272.686 38.0236L270.144 41.1124L275.2 45.2724L277.742 42.1836ZM272.936 40.867C274.952 38.506 276.364 35.3679 277.265 31.5832L273.373 30.6568C272.568 34.0401 271.376 36.534 269.894 38.269L272.936 40.867ZM277.266 31.5781C278.166 27.7522 278.599 23.1074 278.599 17.68H274.599C274.599 22.9193 274.179 27.2344 273.372 30.6619L277.266 31.5781ZM278.599 17.68C278.599 15.2013 278.512 12.6403 278.339 9.99713L274.347 10.2589C274.515 12.8211 274.599 15.2947 274.599 17.68H278.599ZM278.339 9.99923C278.166 7.32396 277.929 4.58612 277.628 1.78585L273.65 2.21414C273.946 4.96054 274.178 7.64137 274.347 10.2568L278.339 9.99923ZM344.812 40.336H342.812V42.336H344.812V40.336ZM344.812 30.608V28.608H342.812V30.608H344.812ZM377.964 30.608H379.964V28.608H377.964V30.608ZM377.964 40.336V42.336H379.964V40.336H377.964ZM369.516 2L371.332 1.16219L370.796 -3.8147e-06H369.516V2ZM391.66 50V52H394.785L393.476 49.1622L391.66 50ZM378.796 50L376.967 50.8095L377.494 52H378.796V50ZM359.788 7.056V5.056H356.716L357.959 7.86549L359.788 7.056ZM363.5 7.056L365.33 7.86321L366.568 5.056H363.5V7.056ZM344.556 50V52H345.86L346.386 50.8072L344.556 50ZM331.692 50L329.876 49.1622L328.567 52H331.692V50ZM353.836 2V-3.8147e-06H352.556L352.02 1.16219L353.836 2ZM346.812 40.336V30.608H342.812V40.336H346.812ZM344.812 32.608H377.964V28.608H344.812V32.608ZM375.964 30.608V40.336H379.964V30.608H375.964ZM377.964 38.336H344.812V42.336H377.964V38.336ZM367.7 2.83781L389.844 50.8378L393.476 49.1622L371.332 1.16219L367.7 2.83781ZM391.66 48H378.796V52H391.66V48ZM380.625 49.1905L361.617 6.24651L357.959 7.86549L376.967 50.8095L380.625 49.1905ZM359.788 9.056H363.5V5.056H359.788V9.056ZM361.67 6.24879L342.726 49.1928L346.386 50.8072L365.33 7.86321L361.67 6.24879ZM344.556 48H331.692V52H344.556V48ZM333.508 50.8378L355.652 2.83781L352.02 1.16219L329.876 49.1622L333.508 50.8378ZM353.836 4H369.516V-3.8147e-06H353.836V4Z" fill="#A772FF"/>
</svg>
