<svg width="274" height="52" viewBox="0 0 274 52" fill="none" xmlns="http://www.w3.org/2000/svg">
<path d="M13.872 47.888L12.9848 49.6805L12.992 49.684L13.872 47.888ZM4.016 39.12L2.32 40.18L2.32 40.18L4.016 39.12ZM4.016 12.88L2.32 11.82L2.32 11.82L4.016 12.88ZM13.872 4.112L12.992 2.316L12.9848 2.31954L13.872 4.112ZM43.504 4.112L42.6168 5.90447L42.624 5.90798L43.504 4.112ZM53.424 12.88L51.728 13.94L51.7323 13.9469L51.7367 13.9537L53.424 12.88ZM53.424 39.12L51.7367 38.0462L51.7323 38.0531L51.728 38.06L53.424 39.12ZM43.504 47.888L42.624 46.092L42.6168 46.0955L43.504 47.888ZM37.296 38.544L38.1382 40.358L38.1515 40.3519L38.1646 40.3455L37.296 38.544ZM42.8 33.616L41.1002 32.5621L41.0925 32.5745L41.085 32.587L42.8 33.616ZM42.8 18.384L41.085 19.413L41.0925 19.4255L41.1002 19.4379L42.8 18.384ZM37.296 13.52L36.4274 15.3215L36.4405 15.3279L36.4538 15.334L37.296 13.52ZM20.208 13.52L21.0502 15.334L21.0635 15.3279L21.0766 15.3215L20.208 13.52ZM14.64 18.384L16.3398 19.4379L16.3398 19.4379L14.64 18.384ZM14.64 33.616L16.3398 32.5621L16.3398 32.5621L14.64 33.616ZM20.208 38.544L19.3394 40.3455L19.3525 40.3519L19.3658 40.358L20.208 38.544ZM28.72 49.024C23.337 49.024 18.6985 48.0258 14.752 46.092L12.992 49.684C17.5789 51.9316 22.839 53.024 28.72 53.024V49.024ZM14.7592 46.0955C10.8451 44.1583 7.84936 41.4798 5.712 38.06L2.32 40.18C4.87597 44.2696 8.45087 47.4364 12.9848 49.6805L14.7592 46.0955ZM5.712 38.06C3.5885 34.6624 2.496 30.6662 2.496 26H-1.504C-1.504 31.3178 -0.249829 36.0683 2.32 40.18L5.712 38.06ZM2.496 26C2.496 21.3338 3.5885 17.3376 5.712 13.94L2.32 11.82C-0.249829 15.9317 -1.504 20.6822 -1.504 26H2.496ZM5.712 13.94C7.84936 10.5202 10.8451 7.84172 14.7592 5.90446L12.9848 2.31954C8.45087 4.56361 4.87598 7.73045 2.32 11.82L5.712 13.94ZM14.752 5.90798C18.6985 3.97422 23.337 2.976 28.72 2.976V-1.024C22.839 -1.024 17.5789 0.0684436 12.992 2.31602L14.752 5.90798ZM28.72 2.976C34.1037 2.976 38.7174 3.97443 42.6168 5.90446L44.3912 2.31954C39.8426 0.0682368 34.6003 -1.024 28.72 -1.024V2.976ZM42.624 5.90798C46.5808 7.84682 49.5938 10.5253 51.728 13.94L55.12 11.82C52.5608 7.72536 48.9605 4.5585 44.384 2.31602L42.624 5.90798ZM51.7367 13.9537C53.8976 17.3495 55.008 21.3407 55.008 26H59.008C59.008 20.6753 57.7291 15.9198 55.1113 11.8062L51.7367 13.9537ZM55.008 26C55.008 30.6593 53.8976 34.6505 51.7367 38.0462L55.1113 40.1938C57.7291 36.0802 59.008 31.3247 59.008 26H55.008ZM51.728 38.06C49.5938 41.4747 46.5808 44.1532 42.624 46.092L44.384 49.684C48.9605 47.4415 52.5608 44.2746 55.12 40.18L51.728 38.06ZM42.6168 46.0955C38.7174 48.0256 34.1037 49.024 28.72 49.024V53.024C34.6003 53.024 39.8426 51.9318 44.3912 49.6805L42.6168 46.0955ZM28.72 42.208C32.2647 42.208 35.4251 41.6177 38.1382 40.358L36.4538 36.73C34.3882 37.689 31.8313 38.208 28.72 38.208V42.208ZM38.1646 40.3455C40.881 39.0359 43.0208 37.1354 44.515 34.645L41.085 32.587C40.0192 34.3633 38.4897 35.7481 36.4274 36.7425L38.1646 40.3455ZM44.4998 34.6699C46.0505 32.1688 46.784 29.2511 46.784 26H42.784C42.784 28.6369 42.1949 30.7965 41.1002 32.5621L44.4998 34.6699ZM46.784 26C46.784 22.7489 46.0505 19.8312 44.4998 17.3301L41.1002 19.4379C42.1949 21.2034 42.784 23.3631 42.784 26H46.784ZM44.515 17.355C43.0167 14.8579 40.8679 12.9733 38.1382 11.706L36.4538 15.334C38.5027 16.2853 40.0233 17.6434 41.085 19.413L44.515 17.355ZM38.1646 11.7185C35.4444 10.4069 32.2742 9.792 28.72 9.792V13.792C31.8218 13.792 34.369 14.3291 36.4274 15.3215L38.1646 11.7185ZM28.72 9.792C25.204 9.792 22.0564 10.4085 19.3394 11.7185L21.0766 15.3215C23.1382 14.3275 25.6653 13.792 28.72 13.792V9.792ZM19.3658 11.706C16.641 12.9711 14.4789 14.8483 12.9402 17.3301L16.3398 19.4379C17.4464 17.653 18.9963 16.2876 21.0502 15.334L19.3658 11.706ZM12.9402 17.3301C11.3895 19.8312 10.656 22.7489 10.656 26H14.656C14.656 23.3631 15.2452 21.2034 16.3398 19.4379L12.9402 17.3301ZM10.656 26C10.656 29.2511 11.3895 32.1688 12.9402 34.6699L16.3398 32.5621C15.2452 30.7965 14.656 28.6369 14.656 26H10.656ZM12.9402 34.6699C14.4748 37.1451 16.6279 39.0382 19.3394 40.3455L21.0766 36.7425C19.0094 35.7458 17.4505 34.3536 16.3398 32.5621L12.9402 34.6699ZM19.3658 40.358C22.0758 41.6162 25.2137 42.208 28.72 42.208V38.208C25.6556 38.208 23.1189 37.6904 21.0502 36.73L19.3658 40.358ZM71.416 20.496V18.496H69.416V20.496H71.416ZM102.648 22.352L101.778 24.1527L101.789 24.1583L102.648 22.352ZM108.472 27.536L106.74 28.5354L106.744 28.5428L106.748 28.55L108.472 27.536ZM108.28 43.024L106.591 41.9524L106.584 41.964L106.577 41.9758L108.28 43.024ZM102.264 48.208L103.098 50.0257L103.105 50.0227L103.111 50.0196L102.264 48.208ZM62.2 50L60.2216 49.7065L59.8814 52H62.2V50ZM65.912 24.976L67.8904 25.2695L67.9358 24.9629L67.8864 24.657L65.912 24.976ZM62.2 2V-3.8147e-06H59.8509L60.2256 2.31898L62.2 2ZM106.616 2H108.616V-3.8147e-06H106.616V2ZM106.616 11.344V13.344H108.616V11.344H106.616ZM69.688 11.344L68.1331 10.0861L65.4975 13.344H69.688V11.344ZM74.296 5.648L76.2697 5.32455L75.5479 0.920538L72.7411 4.3901L74.296 5.648ZM77.432 24.784L79.4084 25.0903L79.4572 24.7752L79.4057 24.4606L77.432 24.784ZM74.04 46.672L72.4921 47.9385L75.3301 51.4071L76.0164 46.9783L74.04 46.672ZM69.432 41.04V39.04H65.2115L67.8841 42.3065L69.432 41.04ZM96.44 30.544L95.1049 32.0331L95.1318 32.0573L95.1596 32.0804L96.44 30.544ZM71.416 28.88H69.416V30.88H71.416V28.88ZM71.416 22.496H92.92V18.496H71.416V22.496ZM92.92 22.496C96.652 22.496 99.572 23.0866 101.778 24.1527L103.518 20.5513C100.604 19.1427 97.0387 18.496 92.92 18.496V22.496ZM101.789 24.1583C104.073 25.2441 105.687 26.7111 106.74 28.5354L110.204 26.5366C108.697 23.9236 106.428 21.9346 103.507 20.5457L101.789 24.1583ZM106.748 28.55C107.817 30.3666 108.392 32.5842 108.392 35.28H112.392C112.392 32.0025 111.687 29.0574 110.196 26.522L106.748 28.55ZM108.392 35.28C108.392 37.8916 107.772 40.0917 106.591 41.9524L109.969 44.0956C111.604 41.519 112.392 38.5564 112.392 35.28H108.392ZM106.577 41.9758C105.44 43.8226 103.753 45.3038 101.417 46.3964L103.111 50.0196C106.066 48.6375 108.389 46.6628 109.983 44.0722L106.577 41.9758ZM101.43 46.3903C99.1487 47.4373 96.3329 48 92.92 48V52C96.7604 52 100.174 51.368 103.098 50.0257L101.43 46.3903ZM92.92 48H62.2V52H92.92V48ZM64.1784 50.2935L67.8904 25.2695L63.9336 24.6825L60.2216 49.7065L64.1784 50.2935ZM67.8864 24.657L64.1744 1.68101L60.2256 2.31898L63.9376 25.295L67.8864 24.657ZM62.2 4H106.616V-3.8147e-06H62.2V4ZM104.616 2V11.344H108.616V2H104.616ZM106.616 9.344H69.688V13.344H106.616V9.344ZM71.2429 12.6019L75.8509 6.90589L72.7411 4.3901L68.1331 10.0861L71.2429 12.6019ZM72.3223 5.97144L75.4583 25.1074L79.4057 24.4606L76.2697 5.32455L72.3223 5.97144ZM75.4556 24.4777L72.0636 46.3657L76.0164 46.9783L79.4084 25.0903L75.4556 24.4777ZM75.5879 45.4055L70.9799 39.7735L67.8841 42.3065L72.4921 47.9385L75.5879 45.4055ZM69.432 43.04H91.384V39.04H69.432V43.04ZM91.384 43.04C93.8784 43.04 96.1038 42.4256 97.8099 40.9548L95.1981 37.9252C94.4296 38.5877 93.2416 39.04 91.384 39.04V43.04ZM97.8099 40.9548C99.5666 39.4404 100.36 37.3493 100.36 34.96H96.36C96.36 36.4107 95.9161 37.3063 95.1981 37.9252L97.8099 40.9548ZM100.36 34.96C100.36 32.5737 99.5176 30.5052 97.7204 29.0076L95.1596 32.0804C95.9224 32.7161 96.36 33.5916 96.36 34.96H100.36ZM97.7751 29.0549C96.0762 27.5317 93.8661 26.88 91.384 26.88V30.88C93.1686 30.88 94.3292 31.3376 95.1049 32.0331L97.7751 29.0549ZM91.384 26.88H71.416V30.88H91.384V26.88ZM73.416 28.88V20.496H69.416V28.88H73.416ZM126.188 50L124.455 49.0012L122.726 52H126.188V50ZM134.636 35.344V33.344H133.48L132.903 34.3452L134.636 35.344ZM134.828 35.344V37.344H135.988L136.564 36.337L134.828 35.344ZM153.9 2V-3.8147e-06H152.739L152.163 1.007L153.9 2ZM166.956 2L168.688 2.99997L170.42 -3.8147e-06H166.956V2ZM139.244 50V52H140.398L140.976 51L139.244 50ZM134.508 43.28L132.777 44.2832L134.062 46.4982L135.9 44.7158L134.508 43.28ZM110.572 2V-3.8147e-06H107.1L108.841 3.00323L110.572 2ZM123.884 2L125.616 1.00123L125.039 -3.8147e-06H123.884V2ZM142.956 35.088L144.348 36.5238L145.466 35.4391L144.688 34.0892L142.956 35.088ZM127.92 50.9988L136.368 36.3428L132.903 34.3452L124.455 49.0012L127.92 50.9988ZM134.636 37.344H134.828V33.344H134.636V37.344ZM136.564 36.337L155.636 2.99299L152.163 1.007L133.091 34.351L136.564 36.337ZM153.9 4H166.956V-3.8147e-06H153.9V4ZM165.223 1.00002L137.511 49L140.976 51L168.688 2.99997L165.223 1.00002ZM139.244 48H126.188V52H139.244V48ZM136.238 42.2768L112.302 0.996761L108.841 3.00323L132.777 44.2832L136.238 42.2768ZM110.572 4H123.884V-3.8147e-06H110.572V4ZM122.151 2.99876L141.223 36.0868L144.688 34.0892L125.616 1.00123L122.151 2.99876ZM141.563 33.6522L133.115 41.8442L135.9 44.7158L144.348 36.5238L141.563 33.6522ZM203.415 26.448L201.579 25.6542L200.232 28.768L203.609 28.4385L203.415 26.448ZM204.439 24.08L204.484 22.0805L203.137 22.0499L202.603 23.2862L204.439 24.08ZM213.655 25.808L212.839 27.6343L212.851 27.6396L213.655 25.808ZM219.031 30.224L217.326 31.27L217.34 31.2929L217.355 31.3153L219.031 30.224ZM219.031 43.536L220.749 44.5596L220.753 44.5517L220.758 44.5437L219.031 43.536ZM213.655 48.272L212.786 46.4705L212.78 46.4735L212.773 46.4767L213.655 48.272ZM170.263 50L168.285 49.7021L167.939 52H170.263V50ZM173.975 25.36L175.952 25.6579L175.998 25.3518L175.95 25.0461L173.975 25.36ZM170.263 2V-3.8147e-06H167.92L168.287 2.31387L170.263 2ZM213.911 5.136L212.607 6.65263L212.621 6.66484L212.635 6.67679L213.911 5.136ZM216.215 19.408L214.434 18.497L214.434 18.497L216.215 19.408ZM211.735 24.08L212.769 25.7918L212.782 25.784L212.794 25.776L211.735 24.08ZM182.167 47.056L180.612 48.3139L183.446 51.8179L184.142 47.3649L182.167 47.056ZM177.559 41.36V39.36H173.368L176.004 42.6179L177.559 41.36ZM206.807 39.888L208.103 41.4105L208.108 41.4065L206.807 39.888ZM206.615 31.248L205.305 32.7594L205.331 32.7826L205.359 32.8048L206.615 31.248ZM180.887 29.584H178.887V31.584H180.887V29.584ZM180.887 21.136V19.136H178.887V21.136H180.887ZM203.671 19.664L204.967 21.1865L204.983 21.1728L204.999 21.1588L203.671 19.664ZM203.927 12.048L202.544 13.4933L202.561 13.5093L202.578 13.525L203.927 12.048ZM177.623 10.64L176.059 9.39275L173.469 12.64H177.623V10.64ZM182.167 4.944L184.139 4.6162L183.403 0.18637L180.603 3.69675L182.167 4.944ZM185.559 25.36L187.534 25.6689L187.584 25.3503L187.531 25.0322L185.559 25.36ZM205.25 27.2418L206.274 24.8738L202.603 23.2862L201.579 25.6542L205.25 27.2418ZM204.393 26.0795C207.989 26.1612 210.774 26.7122 212.839 27.6343L214.47 23.9817C211.757 22.7705 208.398 22.1695 204.484 22.0805L204.393 26.0795ZM212.851 27.6396C214.988 28.5767 216.428 29.8066 217.326 31.27L220.735 29.178C219.329 26.8867 217.185 25.1726 214.458 23.9764L212.851 27.6396ZM217.355 31.3153C218.315 32.7899 218.823 34.535 218.823 36.624H222.823C222.823 33.849 222.136 31.3274 220.706 29.1327L217.355 31.3153ZM218.823 36.624C218.823 38.8591 218.305 40.8104 217.303 42.5283L220.758 44.5437C222.145 42.1656 222.823 39.5089 222.823 36.624H218.823ZM217.312 42.5124C216.345 44.1363 214.872 45.4649 212.786 46.4705L214.523 50.0735C217.216 48.7751 219.327 46.9464 220.749 44.5596L217.312 42.5124ZM212.773 46.4767C210.78 47.455 208.161 48 204.823 48V52C208.566 52 211.835 51.393 214.536 50.0673L212.773 46.4767ZM204.823 48H170.263V52H204.823V48ZM172.24 50.2979L175.952 25.6579L171.997 25.0621L168.285 49.7021L172.24 50.2979ZM175.95 25.0461L172.238 1.68613L168.287 2.31387L171.999 25.6739L175.95 25.0461ZM170.263 4H203.607V-3.8147e-06H170.263V4ZM203.607 4C207.748 4 210.656 4.97538 212.607 6.65263L215.214 3.61936C212.301 1.11528 208.339 -3.8147e-06 203.607 -3.8147e-06V4ZM212.635 6.67679C214.588 8.29291 215.623 10.5307 215.623 13.648H219.623C219.623 9.51192 218.182 6.07509 215.186 3.59521L212.635 6.67679ZM215.623 13.648C215.623 15.3276 215.233 16.9363 214.434 18.497L217.995 20.319C219.074 18.2104 219.623 15.979 219.623 13.648H215.623ZM214.434 18.497C213.687 19.958 212.469 21.2624 210.675 22.384L212.794 25.776C215.096 24.3376 216.865 22.5274 217.995 20.3189L214.434 18.497ZM210.7 22.3682C208.999 23.3959 206.55 24.1326 203.22 24.4574L203.609 28.4385C207.276 28.0807 210.374 27.2388 212.769 25.7918L210.7 22.3682ZM183.721 45.7981L179.113 40.1021L176.004 42.6179L180.612 48.3139L183.721 45.7981ZM177.559 43.36H201.943V39.36H177.559V43.36ZM201.943 43.36C204.328 43.36 206.472 42.7999 208.103 41.4105L205.51 38.3655C204.837 38.9388 203.739 39.36 201.943 39.36V43.36ZM208.108 41.4065C209.822 39.9378 210.599 37.9112 210.599 35.6H206.599C206.599 36.9582 206.181 37.7902 205.505 38.3695L208.108 41.4065ZM210.599 35.6C210.599 33.2157 209.705 31.1709 207.87 29.6912L205.359 32.8048C206.169 33.4585 206.599 34.3149 206.599 35.6H210.599ZM207.924 29.7366C206.134 28.1853 203.658 27.584 200.854 27.584V31.584C203.171 31.584 204.535 32.092 205.305 32.7594L207.924 29.7366ZM200.854 27.584H180.887V31.584H200.854V27.584ZM182.887 29.584V21.136H178.887V29.584H182.887ZM180.887 23.136H199.319V19.136H180.887V23.136ZM199.319 23.136C201.465 23.136 203.398 22.5233 204.967 21.1865L202.374 18.1415C201.639 18.7673 200.671 19.136 199.319 19.136V23.136ZM204.999 21.1588C206.638 19.7019 207.399 17.739 207.399 15.504H203.399C203.399 16.7676 203.007 17.5781 202.342 18.1692L204.999 21.1588ZM207.399 15.504C207.399 13.5717 206.698 11.8707 205.275 10.571L202.578 13.525C203.117 14.0173 203.399 14.6203 203.399 15.504H207.399ZM205.309 10.6027C203.833 9.1906 201.831 8.64 199.639 8.64V12.64C201.2 12.64 202.058 13.0281 202.544 13.4933L205.309 10.6027ZM199.639 8.64H177.623V12.64H199.639V8.64ZM179.186 11.8872L183.73 6.19124L180.603 3.69675L176.059 9.39275L179.186 11.8872ZM180.194 5.27179L183.586 25.6878L187.531 25.0322L184.139 4.6162L180.194 5.27179ZM183.583 25.0511L180.191 46.7471L184.142 47.3649L187.534 25.6689L183.583 25.0511ZM227.672 50H225.672V52H227.672V50ZM227.672 2V-3.8147e-06H225.672V2H227.672ZM239.768 2H241.768V-3.8147e-06H239.768V2ZM239.768 45.84L238.362 47.2626L241.768 50.6283V45.84H239.768ZM234.328 40.464V38.464H229.459L232.922 41.8866L234.328 40.464ZM258.904 38.672L257.587 37.1668L257.575 37.1772L257.563 37.1878L258.904 38.672ZM258.904 28.88L257.563 30.3642L257.575 30.3748L257.587 30.3852L258.904 28.88ZM233.24 27.088H231.24V29.088H233.24V27.088ZM233.24 17.552V15.552H231.24V17.552H233.24ZM264.28 19.6L263.407 21.3996L263.424 21.4075L263.44 21.4151L264.28 19.6ZM270.872 42.32L269.181 41.252L269.181 41.252L270.872 42.32ZM264.28 48.016L265.13 49.8263L265.142 49.8207L264.28 48.016ZM229.672 50V2H225.672V50H229.672ZM227.672 4H239.768V-3.8147e-06H227.672V4ZM237.768 2V45.84H241.768V2H237.768ZM241.174 44.4174L235.734 39.0414L232.922 41.8866L238.362 47.2626L241.174 44.4174ZM234.328 42.464H253.4V38.464H234.328V42.464ZM253.4 42.464C256.082 42.464 258.451 41.7766 260.245 40.1562L257.563 37.1878C256.712 37.9568 255.412 38.464 253.4 38.464V42.464ZM260.221 40.1772C262.079 38.5514 262.952 36.3499 262.952 33.808H258.952C258.952 35.3621 258.46 36.4033 257.587 37.1668L260.221 40.1772ZM262.952 33.808C262.952 31.238 262.089 29.009 260.221 27.3748L257.587 30.3852C258.45 31.1403 258.952 32.1967 258.952 33.808H262.952ZM260.245 27.3958C258.451 25.7754 256.082 25.088 253.4 25.088V29.088C255.412 29.088 256.712 29.5952 257.563 30.3642L260.245 27.3958ZM253.4 25.088H233.24V29.088H253.4V25.088ZM235.24 27.088V17.552H231.24V27.088H235.24ZM233.24 19.552H254.104V15.552H233.24V19.552ZM254.104 19.552C257.848 19.552 260.926 20.1966 263.407 21.3996L265.153 17.8004C262.002 16.2727 258.296 15.552 254.104 15.552V19.552ZM263.44 21.4151C265.984 22.5919 267.87 24.2246 269.181 26.3L272.563 24.164C270.802 21.3754 268.294 19.2534 265.12 17.7849L263.44 21.4151ZM269.181 26.3C270.488 28.3688 271.176 30.8457 271.176 33.808H275.176C275.176 30.1997 274.328 26.9592 272.563 24.164L269.181 26.3ZM271.176 33.808C271.176 36.7221 270.49 39.1791 269.181 41.252L272.563 43.388C274.326 40.5969 275.176 37.3792 275.176 33.808H271.176ZM269.181 41.252C267.867 43.3333 265.972 44.9914 263.418 46.2113L265.142 49.8207C268.305 48.3099 270.805 46.1707 272.563 43.388L269.181 41.252ZM263.43 46.2057C260.943 47.374 257.856 48 254.104 48V52C258.288 52 261.986 51.3033 265.13 49.8263L263.43 46.2057ZM254.104 48H227.672V52H254.104V48Z" fill="#A772FF"/>
</svg>
