<svg width="416" height="114" viewBox="0 0 416 114" fill="none" xmlns="http://www.w3.org/2000/svg">
<path d="M85.9986 38.3586L72.8722 34.6028L76.3918 20.7089L89.5181 24.4648L85.9986 38.3586ZM83.5175 28.129L79.8536 27.0602L78.8728 30.9382L82.5366 32.0073L83.5175 28.129Z" fill="white"/>
<path d="M248.296 38.3586L235.17 34.6028L238.69 20.7089L251.816 24.4648L248.296 38.3586ZM245.815 28.129L242.151 27.0602L241.171 30.9382L244.835 32.0073L245.815 28.129Z" fill="white"/>
<path d="M72.1107 114V57.5211H86.2531L106.987 92.4977L101.115 92.5784L120.69 57.5211H134.793V114H120.61L120.89 76.3205L123.447 77.2887L108.266 103.874H98.6377L82.7774 77.2887L85.2943 76.3205L85.5739 114H72.1107Z" fill="white"/>
<path d="M141.213 114L161.868 57.5211H179.126L199.82 114H183.241L179.725 103.229H160.829L157.353 114H141.213ZM164.065 90.884H176.41L170.257 73.0528L164.065 90.884Z" fill="white"/>
<path d="M206.241 114V57.5211H229.452C233.713 57.5211 237.428 58.2069 240.598 59.5785C243.794 60.9502 246.257 62.9404 247.989 65.5492C249.746 68.1311 250.625 71.2643 250.625 74.9489C250.625 77.6921 250.119 80.1127 249.107 82.2104C248.122 84.2813 246.777 86.0295 245.072 87.4549C243.368 88.8803 241.463 89.9561 239.359 90.6823L253.781 114H236.403L224.937 93.8693H220.942V114H206.241ZM220.942 82.1298H227.814C230.291 82.1298 232.235 81.6591 233.646 80.7178C235.085 79.7496 235.804 78.1493 235.804 75.9171C235.804 73.6579 235.111 72.0442 233.726 71.076C232.368 70.1078 230.464 69.6237 228.013 69.6237H220.942V82.1298Z" fill="white"/>
<path d="M261.718 114V57.5211H276.42V80.032L293.998 57.5211H312.375L291.601 83.6224L314.932 114H296.076L281.933 94.7972L276.42 101.01V114H261.718Z" fill="white"/>
<path d="M321.254 114V57.5211H361.643V70.3499H335.955V79.2655H357.249V91.0454H335.955V101.01H361.963V114H321.254Z" fill="white"/>
<path d="M382.184 114V71.0357H367.522V57.5211H411.627V71.0357H396.965V114H382.184Z" fill="white"/>
<path d="M0 57.6892V1.21026H23.2111C27.4725 1.21026 31.1878 1.89608 34.3572 3.26771C37.5532 4.63934 40.0168 6.62955 41.748 9.23834C43.5058 11.8202 44.3847 14.9535 44.3847 18.638C44.3847 21.3813 43.8787 23.8018 42.8666 25.8996C41.8812 27.9705 40.5362 29.7187 38.8316 31.1441C37.1271 32.5695 35.2228 33.6453 33.1188 34.3715L47.5408 57.6892H30.1624L18.6967 37.5585H14.7017V57.6892H0ZM14.7017 25.8189H21.5731C24.05 25.8189 25.9943 25.3483 27.4059 24.407C28.8441 23.4388 29.5632 21.8385 29.5632 19.6063C29.5632 17.3471 28.8707 15.7334 27.4858 14.7652C26.1275 13.797 24.2232 13.3129 21.7729 13.3129H14.7017V25.8189Z" fill="white"/>
<path d="M81.2245 58.8994C76.8832 58.8994 72.8882 58.1598 69.2394 56.6806C65.5906 55.1745 62.4212 53.0902 59.7312 50.4276C57.0413 47.765 54.9505 44.6452 53.459 41.0682C51.9942 37.4912 51.2618 33.6184 51.2618 29.4497C51.2618 25.2541 51.9942 21.3679 53.459 17.7909C54.9505 14.2139 57.0413 11.0941 59.7312 8.43149C62.4212 5.76892 65.5906 3.69802 69.2394 2.21881C72.8882 0.739604 76.8832 0 81.2245 0C85.5657 0 89.5474 0.753052 93.1696 2.25916C96.8184 3.76526 99.9878 5.86305 102.678 8.55252C105.394 11.242 107.498 14.3752 108.99 17.9522C110.481 21.5023 111.227 25.3348 111.227 29.4497C111.227 33.6184 110.481 37.4912 108.99 41.0682C107.498 44.6452 105.394 47.765 102.678 50.4276C99.9878 53.0902 96.8184 55.1745 93.1696 56.6806C89.5474 58.1598 85.5657 58.8994 81.2245 58.8994ZM81.2245 44.9814C83.3551 44.9814 85.2994 44.6183 87.0572 43.8922C88.8416 43.166 90.3864 42.1306 91.6914 40.7858C92.9965 39.4142 94.0085 37.7736 94.7276 35.8641C95.4468 33.9546 95.8063 31.8165 95.8063 29.4497C95.8063 26.2761 95.1804 23.5329 93.9286 21.2199C92.6769 18.8801 90.9457 17.0781 88.7351 15.8141C86.5512 14.55 84.0476 13.918 81.2245 13.918C79.1204 13.918 77.1762 14.2811 75.3917 15.0073C73.6073 15.7334 72.0625 16.7689 70.7575 18.1136C69.4525 19.4583 68.4404 21.0989 67.7213 23.0353C67.0288 24.9449 66.6826 27.083 66.6826 29.4497C66.6826 32.6233 67.3085 35.38 68.5602 37.7198C69.812 40.0328 71.5299 41.8213 73.7138 43.0853C75.8978 44.3494 78.4013 44.9814 81.2245 44.9814Z" fill="white"/>
<path d="M120.475 57.6892V1.21026H142.967C148.773 1.21026 153.394 2.42052 156.83 4.84105C160.292 7.23468 162.023 10.7982 162.023 15.5317C162.023 17.2261 161.69 18.786 161.024 20.2114C160.385 21.6099 159.493 22.8605 158.348 23.9632C157.203 25.039 155.911 25.94 154.473 26.6661C157.456 27.7419 159.839 29.5439 161.624 32.072C163.435 34.5732 164.34 37.5181 164.34 40.9069C164.34 44.3494 163.488 47.3213 161.784 49.8225C160.079 52.3237 157.655 54.2601 154.513 55.6317C151.396 57.0034 147.668 57.6892 143.326 57.6892H120.475ZM135.177 46.9178H141.329C143.886 46.9178 145.803 46.38 147.082 45.3042C148.36 44.2015 148.999 42.6012 148.999 40.5035C148.999 38.4595 148.4 36.8727 147.202 35.7431C146.003 34.6135 144.245 34.0487 141.928 34.0487H135.177V46.9178ZM135.177 24.0439H141.049C142.461 24.0439 143.659 23.8018 144.645 23.3177C145.657 22.8336 146.429 22.1344 146.962 21.2199C147.521 20.3055 147.801 19.1894 147.801 17.8715C147.801 15.9889 147.202 14.5366 146.003 13.5146C144.805 12.4926 143.073 11.9816 140.81 11.9816H135.177V24.0439Z" fill="white"/>
<path d="M173.69 57.6892V1.21026H188.392V44.1342H210.204V57.6892H173.69Z" fill="white"/>
<path d="M243.054 58.8994C238.713 58.8994 234.718 58.1598 231.069 56.6806C227.42 55.1745 224.251 53.0902 221.561 50.4276C218.871 47.765 216.78 44.6452 215.289 41.0682C213.824 37.4912 213.091 33.6184 213.091 29.4497C213.091 25.2541 213.824 21.3679 215.289 17.7909C216.78 14.2139 218.871 11.0941 221.561 8.43149C224.251 5.76892 227.42 3.69802 231.069 2.21881C234.718 0.739604 238.713 0 243.054 0C247.395 0 251.377 0.753052 254.999 2.25916C258.648 3.76526 261.817 5.86305 264.507 8.55252C267.224 11.242 269.328 14.3752 270.82 17.9522C272.311 21.5023 273.057 25.3348 273.057 29.4497C273.057 33.6184 272.311 37.4912 270.82 41.0682C269.328 44.6452 267.224 47.765 264.507 50.4276C261.817 53.0902 258.648 55.1745 254.999 56.6806C251.377 58.1598 247.395 58.8994 243.054 58.8994ZM243.054 44.9814C245.185 44.9814 247.129 44.6183 248.887 43.8922C250.671 43.166 252.216 42.1306 253.521 40.7858C254.826 39.4142 255.838 37.7736 256.557 35.8641C257.276 33.9546 257.636 31.8165 257.636 29.4497C257.636 26.2761 257.01 23.5329 255.758 21.2199C254.507 18.8801 252.775 17.0781 250.565 15.8141C248.381 14.55 245.877 13.918 243.054 13.918C240.95 13.918 239.006 14.2811 237.221 15.0073C235.437 15.7334 233.892 16.7689 232.587 18.1136C231.282 19.4583 230.27 21.0989 229.551 23.0353C228.859 24.9449 228.512 27.083 228.512 29.4497C228.512 32.6233 229.138 35.38 230.39 37.7198C231.642 40.0328 233.36 41.8213 235.544 43.0853C237.727 44.3494 240.231 44.9814 243.054 44.9814Z" fill="white"/>
<path d="M280.721 28.2481C280.721 24.3187 281.225 20.7063 282.234 17.411C283.253 14.1053 284.705 11.0647 286.589 8.28915H289.801C289.059 9.31828 288.364 10.5865 287.716 12.0938C287.078 13.5908 286.517 15.2384 286.033 17.0368C285.549 18.8248 285.168 20.6752 284.89 22.5879C284.622 24.5006 284.489 26.3874 284.489 28.2481C284.489 30.7222 284.725 33.2327 285.199 35.7795C285.672 38.3264 286.311 40.6913 287.114 42.8743C287.917 45.0573 288.812 46.8349 289.801 48.2071H286.589C284.705 45.4316 283.253 42.3961 282.234 39.1008C281.225 35.7951 280.721 32.1776 280.721 28.2481Z" fill="white"/>
<path d="M311.28 43.2134C301.713 43.2134 294.06 35.4853 294.06 25.8251C294.06 16.165 301.713 8.43685 311.28 8.43685C320.846 8.43685 328.499 16.165 328.499 25.8251C328.499 35.4853 320.846 43.2134 311.28 43.2134ZM295.887 25.8251H311.28V10.2811C302.713 10.2811 295.887 17.1749 295.887 25.8251Z" fill="white"/>
<path d="M348.362 52.0742C345.562 52.0742 343.164 51.8039 341.167 51.2633C339.17 50.7332 337.461 50.0003 336.04 49.0647C334.619 48.1395 333.374 47.0844 332.303 45.8994L334.65 44.2153C336.071 45.2133 337.862 46.0553 340.024 46.7414C342.186 47.4275 344.965 47.7705 348.362 47.7705C350.627 47.7705 352.64 47.6042 354.4 47.2715C356.171 46.9389 357.72 46.5023 359.048 45.9617C360.386 45.4212 361.539 44.839 362.507 44.2153L364.483 45.8994C363.619 47.0013 362.46 48.02 361.009 48.9556C359.568 49.8911 357.797 50.6448 355.697 51.2165C353.607 51.7883 351.162 52.0742 348.362 52.0742Z" fill="white"/>
<path d="M385.464 43.2134C375.898 43.2134 368.245 35.4853 368.245 25.8251C368.245 16.165 375.898 8.43685 385.464 8.43685C395.031 8.43685 402.684 16.165 402.684 25.8251C402.684 35.4853 395.031 43.2134 385.464 43.2134ZM370.071 25.8251H385.464V10.2811C376.898 10.2811 370.071 17.1749 370.071 25.8251Z" fill="white"/>
<path d="M416 28.2481C416 32.1776 415.49 35.7951 414.471 39.1008C413.462 42.3961 412.016 45.4316 410.132 48.2071H406.92C407.662 47.178 408.351 45.9097 408.99 44.4024C409.638 42.9055 410.204 41.263 410.688 39.4751C411.172 37.6767 411.548 35.8211 411.815 33.9084C412.093 31.9852 412.232 30.0985 412.232 28.2481C412.232 25.774 411.996 23.2636 411.522 20.7167C411.048 18.1699 410.41 15.805 409.607 13.6219C408.804 11.4389 407.909 9.66133 406.92 8.28915H410.132C412.016 11.0647 413.462 14.1053 414.471 17.411C415.49 20.7063 416 24.3187 416 28.2481Z" fill="white"/>
</svg>
